<?xml version="1.0" encoding="utf-8"?>
<!-- Generator: Adobe Illustrator 19.1.0, SVG Export Plug-In . SVG Version: 6.00 Build 0)  -->
<svg version="1.1" id="Layer_1" xmlns="http://www.w3.org/2000/svg" xmlns:xlink="http://www.w3.org/1999/xlink" x="0px" y="0px"
	 viewBox="0 0 1900 808" style="enable-background:new 0 0 1900 808;" xml:space="preserve">
<metadata><?xpacket begin="﻿" id="W5M0MpCehiHzreSzNTczkc9d"?>
<x:xmpmeta xmlns:x="adobe:ns:meta/" x:xmptk="Adobe XMP Core 5.6-c067 79.157747, 2015/03/30-23:40:42        ">
   <rdf:RDF xmlns:rdf="http://www.w3.org/1999/02/22-rdf-syntax-ns#">
      <rdf:Description rdf:about=""/>
   </rdf:RDF>
</x:xmpmeta>
                                                                                                    
                                                                                                    
                                                                                                    
                                                                                                    
                                                                                                    
                                                                                                    
                                                                                                    
                                                                                                    
                                                                                                    
                                                                                                    
                                                                                                    
                                                                                                    
                                                                                                    
                                                                                                    
                                                                                                    
                                                                                                    
                                                                                                    
                                                                                                    
                                                                                                    
                                                                                                    
                           
<?xpacket end="w"?></metadata>
<style type="text/css">
	.st0{fill:url(#SVGID_1_);}
	.st1{fill:#E2DEC9;}
	.st2{fill:url(#SVGID_2_);}
	.st3{fill:#EFBD33;}
	.st4{fill:url(#SVGID_3_);}
	.st5{fill:url(#SVGID_4_);}
	.st6{fill:#999998;}
	.st7{fill:#8C8C8C;}
	.st8{fill:#8D6635;}
	.st9{fill:#704E2A;}
	.st10{fill:#3D3C3D;}
	.st11{fill:#262626;}
	.st12{fill:#A56F3A;}
	.st13{fill:#231F20;}
	.st14{fill:#BC8548;}
	.st15{fill:#AA7840;}
	.st16{fill:#936537;}
	.st17{fill:#C68C52;}
	.st18{opacity:0.5;}
	.st19{fill:#EDD8A3;}
	.st20{fill:#D1BB8C;}
	.st21{fill:#AF9872;}
	.st22{fill:#C9B89E;}
	.st23{fill:#A3927C;}
	.st24{fill:#DBC6A9;}
	.st25{fill:#B29F86;}
	.st26{fill:#CD904D;}
	.st27{fill:#E0A66C;}
	.st28{fill:#FFFFFF;}
	.st29{fill:#3A2613;}
	.st30{fill:#8C6534;}
	.st31{fill:#A3A29D;}
	.st32{fill:url(#SVGID_5_);}
	.st33{fill:#898886;}
	.st34{fill:#FBF8E6;}
	.st35{fill:url(#SVGID_6_);}
	.st36{fill:#8E8E8D;}
	.st37{fill:#AAA9A3;}
	.st38{fill:url(#SVGID_7_);}
</style>
<linearGradient id="SVGID_1_" gradientUnits="userSpaceOnUse" x1="950" y1="808" x2="950" y2="-4.265075e-08">
	<stop  offset="0" style="stop-color:#CCCA7F"/>
	<stop  offset="0.2004" style="stop-color:#AABD84"/>
	<stop  offset="0.521" style="stop-color:#79A98A"/>
	<stop  offset="0.7653" style="stop-color:#5A9D8E"/>
	<stop  offset="0.9025" style="stop-color:#4F9990"/>
</linearGradient>
<rect class="st0" width="1900" height="808"/>
<g>
	<path class="st1" d="M395.9,226.4c-0.2,0.8-0.3,1.6-0.3,2.4c0,8,9.3,14.5,20.8,14.6l0,0.1l166.8-0.2c16.4,0.9,30.8-6.2,37.3-17
		H395.9z"/>
	<linearGradient id="SVGID_2_" gradientUnits="userSpaceOnUse" x1="508.3038" y1="243.4321" x2="508.3038" y2="149.2072">
		<stop  offset="0.4032" style="stop-color:#FBF8E6"/>
		<stop  offset="1" style="stop-color:#EFECDF"/>
	</linearGradient>
	<path class="st2" d="M586.5,182.9c-6-0.3-11.7,0.4-16.9,2c-6.2-20.5-30.5-35.7-59.4-35.7c-31.8,0-58,18.4-60.8,41.9
		c-17.1,0.5-30.9,10.4-32.6,23.1c-0.6,0-1.1-0.1-1.7-0.1c-12.6,0-22.7,6.6-22.7,14.6c0,8.1,10.2,14.6,22.7,14.6c6.9,0,13-2,17.2-5.1
		c5.3,2.6,11.6,4.1,18.4,4.1c10.2,0,19.3-3.4,25.6-8.8c9.7,4.9,21.3,7.7,33.8,7.7c15.9,0,30.4-4.6,41.2-12.1
		c6.7,8.4,18.2,13.3,31.6,14c21.8,1.2,40.2-10.5,41.2-27.5C625.1,198.9,608.3,184.2,586.5,182.9z"/>
</g>
<g>
	<circle class="st3" cx="1448.4" cy="350.7" r="88.7"/>
	<g>
		<path class="st1" d="M1471.7,385.2c-0.1,0.4-0.2,0.8-0.2,1.3c0,4.3,5,7.7,11.1,7.8l0,0l88.9-0.1c8.7,0.5,16.4-3.3,19.9-9H1471.7z"
			/>
		<linearGradient id="SVGID_3_" gradientUnits="userSpaceOnUse" x1="1531.5989" y1="394.3411" x2="1531.5989" y2="344.1256">
			<stop  offset="0.4032" style="stop-color:#FBF8E6"/>
			<stop  offset="1" style="stop-color:#EFECDF"/>
		</linearGradient>
		<path class="st4" d="M1573.3,362.1c-3.2-0.2-6.2,0.2-9,1.1c-3.3-10.9-16.2-19-31.7-19c-17,0-30.9,9.8-32.4,22.3
			c-9.1,0.3-16.5,5.5-17.4,12.3c-0.3,0-0.6,0-0.9,0c-6.7,0-12.1,3.5-12.1,7.8c0,4.3,5.4,7.8,12.1,7.8c3.7,0,6.9-1,9.2-2.7
			c2.8,1.4,6.2,2.2,9.8,2.2c5.4,0,10.3-1.8,13.6-4.7c5.2,2.6,11.4,4.1,18,4.1c8.5,0,16.2-2.5,22-6.5c3.6,4.5,9.7,7.1,16.9,7.5
			c11.6,0.7,21.4-5.6,21.9-14.6C1593.9,370.6,1584.9,362.8,1573.3,362.1z"/>
	</g>
	<g>
		<path class="st1" d="M1294.3,341.3c-0.1,0.4-0.2,0.8-0.2,1.3c0,4.3,5,7.7,11.1,7.8l0,0l88.9-0.1c8.7,0.5,16.4-3.3,19.9-9H1294.3z"
			/>
		<linearGradient id="SVGID_4_" gradientUnits="userSpaceOnUse" x1="1354.2211" y1="350.4189" x2="1354.2211" y2="300.2035">
			<stop  offset="0.4032" style="stop-color:#FBF8E6"/>
			<stop  offset="1" style="stop-color:#EFECDF"/>
		</linearGradient>
		<path class="st5" d="M1395.9,318.2c-3.2-0.2-6.2,0.2-9,1.1c-3.3-10.9-16.2-19-31.7-19c-17,0-30.9,9.8-32.4,22.3
			c-9.1,0.3-16.5,5.5-17.4,12.3c-0.3,0-0.6,0-0.9,0c-6.7,0-12.1,3.5-12.1,7.8s5.4,7.8,12.1,7.8c3.7,0,6.9-1,9.2-2.7
			c2.8,1.4,6.2,2.2,9.8,2.2c5.4,0,10.3-1.8,13.6-4.7c5.2,2.6,11.4,4.1,18,4.1c8.5,0,16.2-2.5,22-6.5c3.6,4.5,9.7,7.1,16.9,7.5
			c11.6,0.7,21.4-5.6,21.9-14.6C1416.5,326.7,1407.5,318.8,1395.9,318.2z"/>
	</g>
</g>
<g>
	<g>
		<g>
			<polygon class="st6" points="1447.9,808 1265.2,550.9 1069.6,808 			"/>
			<polygon class="st7" points="1275.1,808 1265.2,550.9 1069.6,808 			"/>
		</g>
		<g>
			<path class="st8" d="M821.4,375.9c-0.4,0-0.8-0.1-1.1-0.3c-1-0.6-1.4-2-1.5-3.3c-1.9,1.2-4,1.8-6.2,1.8c-0.4,0-0.8,0-1.2-0.1
				c-0.1,0-3.7-0.3-4.4-2c-0.2-0.6-0.2-1.2,0.2-1.7c0,0,0.3-0.4,0.3-0.4c0,0,0,0,0,0c-3.6-1.2-7.9-5.2-8.9-6.5
				c-0.9-1.1-1.8-4.4-1.2-5.7c0.2-0.5,0.7-0.8,1.2-0.8c0.3,0,0.5,0.1,0.7,0.2c-3.5-5.1-3.7-8.4-2.8-11.6c0.5-2,1.5-2.4,2.3-2.4
				c1.2,0,2.2,1.1,3.1,2.3c3.6,4.6,7.4,7,11.5,7c3,0,5.6-1.3,7.2-2.4c0.9-0.7,3-4.9,4.2-7.6l0.5-1.1l1,0.7c1.1,0.8,4.8,3.6,5.4,5
				l0.1,0.2l-0.8,21.7l-2.5,1C826.7,372.8,823.5,375.9,821.4,375.9z"/>
			<path class="st9" d="M825.7,342.8c0,0,4.6,3.3,5.1,4.6l-0.7,20.8l-2.2,0.9c-1.6,2.8-4.8,5.8-6.4,5.8c-0.2,0-0.4,0-0.5-0.1
				c-1.4-0.9-1.1-4.3-1.1-4.3c-2.8,2.3-5.4,2.7-7.2,2.7c-0.4,0-0.8,0-1.1,0c-1.6-0.1-4.4-1-3.5-2.1c0.9-1.2,1.3-1.5-0.2-2
				c-3.3-1.1-7.4-4.8-8.4-6.1c-0.9-1.1-1.7-4.8-0.8-4.8c0.2,0,0.4,0.1,0.7,0.4c1,1,1.9,1.5,2.5,1.5c0.5,0,0.6-0.3,0.2-0.8
				c-5.4-6.7-5.3-10.1-4.5-13.2c0.3-1.2,0.8-1.7,1.3-1.7c0.8,0,1.6,1,2.3,1.9c4.3,5.6,8.6,7.4,12.3,7.4c3.1,0,5.8-1.3,7.7-2.6
				C822.7,349.7,825.7,342.8,825.7,342.8 M824.8,339.7l-1,2.3c-1.4,3.3-3.3,6.7-3.9,7.2c-1.5,1-3.8,2.2-6.6,2.2
				c-3.7,0-7.3-2.2-10.7-6.6c-1-1.3-2.3-2.7-3.9-2.7c-0.9,0-2.5,0.4-3.2,3.1c-0.9,3.1-0.8,6.3,2,10.9c-0.4,0.2-0.8,0.6-1,1
				c-0.9,1.8,0.3,5.6,1.3,6.8c1,1.3,4.7,4.7,8.2,6.3c-0.3,0.7-0.3,1.4,0,2c0.9,2.1,4.5,2.6,5.3,2.6c0.4,0,0.8,0.1,1.3,0.1
				c1.9,0,3.8-0.4,5.5-1.2c0.3,1,0.8,2,1.7,2.6c0.5,0.3,1,0.4,1.6,0.4c2.7,0,6.1-3.5,7.8-6.2l1.6-0.6l1.2-0.5l0-1.3l0.7-20.8l0-0.4
				l-0.2-0.4c-0.6-1.5-3.5-3.8-5.8-5.4L824.8,339.7L824.8,339.7z"/>
		</g>
		<g>
			<path class="st10" d="M995.9,439l0-0.2c-0.3-5.8,0.1-5.9,0.5-6c0.5-0.3,5.8-5.1,6.4-5.7c0.2-0.2,0.3-0.3,4-0.3
				c5.2,0,14.3,0.3,14.4,0.3l0.1,0l0.1,0.1c0.5,0.3,12,7.9,13.6,9.1c0.5,0.4,1,1.3,0.7,2.6c0,0.2-0.1,0.5-1.4,0.7
				c0.6,1,0.3,1.3,0.2,1.4c-1.9,2.5-7,6.5-20.2,11.2l-0.2,0.1L995.9,439z"/>
			<path class="st11" d="M1006.7,427.2c5.3,0,14.4,0.3,14.4,0.3s12,7.9,13.6,9.1c0.4,0.3,0.7,1,0.5,2.1c-0.1,0.3-1.8,0.4-1.8,0.4
				s0.9,1.2,0.7,1.6c-2.1,2.7-7.6,6.6-20,11.1l-17.8-12.9c0,0-0.3-5.4,0.2-5.5c0.5-0.2,6.1-5.3,6.6-5.9
				C1003.2,427.2,1004.7,427.2,1006.7,427.2 M1006.7,426.2L1006.7,426.2c-3.9,0-4.1,0.2-4.4,0.5c-0.6,0.6-5.5,5.1-6.3,5.6
				c-0.6,0.2-1.1,0.6-0.7,6.5l0,0.5l0.4,0.3l17.8,12.9l0.4,0.3l0.5-0.2c13.3-4.8,18.4-8.8,20.4-11.4c0.2-0.3,0.4-0.7,0.1-1.4
				c0.8-0.2,1-0.6,1.1-0.9c0.4-1.5-0.2-2.6-0.8-3.1c-1.6-1.2-13.1-8.8-13.6-9.1l-0.2-0.2l-0.3,0
				C1021.1,426.5,1012,426.2,1006.7,426.2L1006.7,426.2z"/>
		</g>
		<g>
			<path class="st12" d="M979.9,369.7c0,0,8.4,30.4,9.1,35c0.7,4.6,1,18.4,2.1,21.6c1.1,3.2,10,12.2,10,12.2s18.7-5,21.6-9
				c2.9-3.9-1.7-5.6-4.8-6.6c-3.1-1-7.8-1.3-10.3-5.9c-2.5-4.7-6.3-15.9-6.5-17.4c-0.2-1.5-1.9-15-5-22.7c-1-2.4-0.6-25.2-3.3-31
				c-2.7-5.8-17.9,11.5-17.9,11.5L979.9,369.7z"/>
			<path class="st9" d="M1001.1,439.5c-0.3,0-0.5-0.1-0.7-0.3c-0.9-0.9-9.1-9.2-10.3-12.6c-0.7-2-1.1-7.7-1.4-13.1
				c-0.2-3.5-0.4-6.9-0.7-8.7c-0.7-4.4-8.7-33.4-9.1-34.8l-4.9-12.2c-0.1-0.4-0.1-0.7,0.2-1c2-2.3,12.4-13.7,17.3-12.9
				c1,0.1,1.8,0.7,2.2,1.7c1.7,3.8,2.2,13.9,2.6,22c0.2,4.1,0.4,8.3,0.7,9.1c3.4,8.2,5.1,22.8,5.1,22.9c0.1,1.3,3.9,12.4,6.4,17
				c1.8,3.4,5,4.2,7.7,4.9c0.7,0.2,1.4,0.3,2,0.5c2.7,0.9,5.6,2,6.3,4.2c0.4,1.2,0.1,2.5-1,3.9c-3.1,4.1-20.2,8.8-22.2,9.3
				C1001.2,439.5,1001.1,439.5,1001.1,439.5z M976.1,357.7l4.7,11.7c0,0,0,0.1,0,0.1c0.3,1.2,8.4,30.5,9.1,35.1
				c0.3,1.9,0.5,5.3,0.7,8.9c0.3,5.1,0.7,10.8,1.3,12.6c0.8,2.3,6.7,8.7,9.4,11.4c5.5-1.5,18.4-5.6,20.5-8.5
				c0.6-0.8,0.9-1.5,0.7-2.1c-0.5-1.5-3.5-2.4-5-2.9c-0.6-0.2-1.2-0.3-1.8-0.5c-3-0.8-6.8-1.7-9-5.9c-2.5-4.7-6.4-16-6.6-17.7
				c0-0.1-1.7-14.4-5-22.4c-0.4-1-0.6-4-0.8-9.7c-0.3-7.5-0.8-17.8-2.4-21.2c-0.2-0.5-0.5-0.6-0.7-0.6
				C988.3,345.4,980.6,352.7,976.1,357.7z"/>
		</g>
		<g>
			<path class="st10" d="M989.6,465.2c-2.9,0-5.6-1.8-6.8-4.4l-4.5-9.6l0.2-0.2c0.5-0.5,13.4-13.3,20.7-13.3c0.8,0,1.5,0.1,2,0.4
				c6.4,2.9,15.5,10.3,14.7,14c-0.2,1.1-0.9,2.2-2,3.3c-0.2,0.2-0.5,0.3-0.8,0.3c-0.5,0-1.1-0.1-1.6-0.3c0.1,0.9,0.1,1.9-0.4,2.2
				c-5.4,3.6-14,6.2-17.4,7.2c-0.8,0.2-1.7,0.4-2.6,0.4L989.6,465.2z"/>
			<path class="st11" d="M999.2,438.2c0.7,0,1.3,0.1,1.8,0.4c6.5,2.9,15.1,10.2,14.4,13.4c-0.2,1.1-0.9,2.1-1.9,3.1
				c-0.1,0.1-0.3,0.1-0.5,0.1c-0.8,0-2.2-0.4-2.2-0.4s0.4,2.2-0.1,2.5c-5.4,3.6-14,6.2-17.2,7.1c-0.8,0.2-1.6,0.3-2.4,0.3
				c0,0-0.1,0-0.1,0l-1.5,0c-2.7,0-5.2-1.6-6.4-4.1l-4.4-9.3C978.8,451.3,992,438.2,999.2,438.2 M999.2,437.2
				c-7.5,0-20.5,12.9-21.1,13.4l-0.5,0.5l0.3,0.6l4.4,9.3c1.3,2.8,4.2,4.6,7.3,4.7l1.5,0l0.1,0c0.9,0,1.8-0.1,2.7-0.4
				c3.4-1,12-3.6,17.5-7.3c0.2-0.1,0.7-0.5,0.7-2c0.3,0.1,0.7,0.1,1,0.1c0.2,0,0.8,0,1.2-0.4c1.1-1.2,1.9-2.4,2.1-3.6
				c1-4.3-9.3-12-15-14.6C1000.8,437.3,1000,437.2,999.2,437.2L999.2,437.2z"/>
		</g>
		<g>
			<path class="st10" d="M834.2,496.6c0,0,2.2,11.8,3.4,13.8c1.2,2,6.4,4.2,15,2.1c5.7-1.4,6.9-4.4,6.9-4.4s2.3,1.6,3.6,1.4
				s9.6-4.7,8.6-8.4c-1-3.8-3.8-8.1-7.7-9.2C860,490.7,836.7,495.6,834.2,496.6z"/>
			<path class="st11" d="M846,513.8c-5,0-8-1.7-8.9-3.2c-1.2-2-3.3-13.5-3.4-14l-0.1-0.4l0.4-0.2c2.4-1,25.8-6,30-4.9
				c4.2,1.2,7.1,5.8,8.1,9.5c0.2,0.9,0,1.9-0.6,3c-1.9,3.1-7.3,5.8-8.3,6.1c-1.1,0.2-2.7-0.6-3.5-1.1c-0.6,1-2.5,3.1-7,4.2
				C850.1,513.6,847.9,513.8,846,513.8z M834.8,497c0.7,3.5,2.3,11.7,3.2,13.2c1.2,1.9,6.4,3.8,14.4,1.8c5.3-1.3,6.5-4.1,6.5-4.1
				l0.2-0.6l0.5,0.4c0.8,0.6,2.4,1.4,3.2,1.3c0.9-0.2,6-2.8,7.7-5.6c0.5-0.8,0.7-1.6,0.5-2.2c-0.9-3.5-3.6-7.8-7.4-8.8
				C860.2,491.3,838.6,495.7,834.8,497z"/>
		</g>
		<path class="st13" d="M857.8,509.8c-0.3-0.4-0.4-8.8-0.4-8.8l4.2,7.8L857.8,509.8z"/>
		<g>
			<path class="st10" d="M901.8,474.5c0,0,8.5,9.6,11.6,9.2c4.2-0.6,17.4-7.2,22.7-11.6c0,0,3.8-2.9,1-4.7
				c-2.9-1.9-9.6-6.6-11.6-5.8C923.5,462.3,915.4,454,901.8,474.5z"/>
			<path class="st11" d="M913.2,484.2c-3.4,0-10.9-8.4-11.8-9.4l-0.3-0.3l0.2-0.3c11.3-16.9,18.8-14.6,22.4-13.5
				c0.6,0.2,1.2,0.4,1.5,0.3c1.9-0.7,6.4,2.2,11,5.2l1,0.7c0.8,0.5,1.3,1.2,1.3,2c0.1,1.8-2.2,3.5-2.2,3.5
				c-5.1,4.3-18.4,11.1-22.9,11.7C913.3,484.2,913.3,484.2,913.2,484.2z M902.4,474.5c3.3,3.7,8.9,9.1,10.9,8.8
				c4-0.5,17.2-7.1,22.4-11.5c0.5-0.4,1.9-1.7,1.9-2.7c0-0.5-0.3-0.9-0.8-1.2l-1-0.7c-2.6-1.7-8.6-5.7-10.1-5.1
				c-0.5,0.2-1.2,0-2.1-0.3C920.2,460.7,913.2,458.5,902.4,474.5z"/>
		</g>
		<polygon class="st13" points="936,471.6 928.1,464.4 937.8,469.7 		"/>
		<g>
			<path class="st12" d="M866.5,424l12.1,14.2c1.8,2.1,3.4,4.5,4.6,7l13.4,26.8c0.6,1.1,1.1,2.5,2.2,3l1.6,0.7
				c1.1,0.5,2.8-0.3,3.8-1c3.8-2.8,13.9-9.8,22.6-13.2c0,0,1.9-2.5-4.8-4.9s-22-5.9-38.9-34.4c-1-1.7,19-30,17.8-45.1
				c-0.2-2,2.9-6.4,5.2-7.5c2.3-1.1-25.6-2.4-25.6-2.4l-16.1,20.7l-5.9,21.7L866.5,424z"/>
			<path class="st9" d="M901.4,476.8c-0.4,0-0.8-0.1-1.2-0.2l-1.6-0.7c-1.3-0.5-1.9-1.8-2.4-2.9c-0.1-0.2-0.2-0.4-0.3-0.6
				l-13.4-26.8c-1.2-2.4-2.7-4.7-4.5-6.8l-12.1-14.2c0-0.1-0.1-0.1-0.1-0.2l-7.9-14.4c-0.1-0.2-0.2-0.5-0.1-0.7l5.9-21.7
				c0-0.1,0.1-0.2,0.2-0.3l16.1-20.7c0.2-0.3,0.5-0.4,0.8-0.4c26.3,1.2,26.5,2.2,26.7,3.1c0.1,0.4-0.1,0.9-0.7,1.2
				c-2.1,1-4.8,5-4.7,6.5c0.9,10.6-8.5,27.4-14,37.4c-1.8,3.2-3.6,6.5-3.8,7.4c15.5,26,29.3,30.7,36.8,33.2c0.5,0.2,1,0.4,1.5,0.5
				c3.2,1.2,5.1,2.6,5.6,4.2c0.4,1.3-0.2,2.2-0.3,2.3c-0.1,0.1-0.3,0.3-0.4,0.3c-8.5,3.3-18.5,10.2-22.3,13
				C904,476.2,902.6,476.8,901.4,476.8z M867.4,423.4l12.1,14.1c1.9,2.2,3.5,4.6,4.8,7.2l13.4,26.8c0.1,0.2,0.2,0.4,0.3,0.6
				c0.4,0.8,0.8,1.7,1.4,1.9l1.6,0.7c0.6,0.2,1.8-0.1,2.8-0.9c3.9-2.8,13.8-9.6,22.4-13.1c0-0.1,0-0.2-0.1-0.4
				c-0.2-0.4-0.9-1.6-4.4-2.8c-0.5-0.2-0.9-0.3-1.5-0.5c-7.2-2.4-22-7.5-38-34.3c-0.6-1,0.1-2.3,3.9-9.2
				c5.4-9.8,14.6-26.3,13.8-36.3c-0.2-2.1,2-5.4,4.1-7.3c-4-0.6-13.9-1.2-23-1.7l-15.6,20.2l-5.8,21.1L867.4,423.4z"/>
		</g>
		<g>
			<path class="st14" d="M840,501c-2.2,0-4.3-1.2-5.7-3.2c-1.5-2.2-2-4.9-1.2-7.2c6-17.1,2.9-41.7,1.4-46.1
				c-2-5.8-1.7-10.6,0.8-14.4c1.7-2.5,2.2-4.9,3.4-9.7c0.7-2.7,1.5-6.1,2.8-10.6c2.8-9.8,3.2-22.7-1.3-28.4c-2.4-3-6.4-6.7-9.3-9.3
				c-2.5-2.2-4.4-4.7-5.7-7.5c-3.9-8.5-2.3-14.3-1-18.9c0.3-1.2,0.6-2.3,0.8-3.3c1.2-6.7,22.8-34.1,64.3-48.9
				c38.9-13.9,44.8-31.4,48.3-41.8c0.2-0.6,0.4-1.3,0.6-1.8c3.7-10.6-7.1-27.5-7.2-27.7c-1.9-2.9-15.6-16.8-15.7-17
				c-0.1-0.1-0.2-0.3-0.2-0.4c-0.3-1-0.2-1.8,0.2-2.4c0.3-0.4,0.8-0.8,1.9-0.8c2.7,0,7.4,2.7,8.7,3.8c1.5,1.2,21.7,5.8,28.1,5.8
				c0.9,0,1.1-0.1,1.1-0.1c0.5-0.2,1.4-0.7,2.5-1.3c4.1-2.1,11-5.7,14.7-5.7c2.2,0,2.9,1.3,3.1,2c0.9,3.9,2.7,12,10.3,15.5
				c13.3,6.2,21.6,14.7,24.7,25.1c4,13.6-2.3,26.1-4.2,29.3l10.4,8c0.2,0.2,0.4,0.5,0.4,0.8c0,0.5-0.3,46.1-30.9,74.1
				c-3.2,2.9-4.9,17.6-2.3,26.5c3.6,12.3,1.6,21.4,1.2,23.1c2.5,12,8.1,19.6,11,20.3c2.6,0.6,6.7,2.6,7.5,5.7
				c0.3,1.1,0.3,2.9-1.7,4.8c-9.9,9.6-15.6,12.7-21.6,14.5c-0.5,0.1-0.9,0.2-1.4,0.2c-5,0-6.3-8.6-6.6-12.3c-0.1-0.8-0.2-2-0.3-3.3
				c-0.5-7-1.5-20.1-3.1-24.7c-1.8-5.3-1.8-16.4-1.8-20.1c0-0.4,0-0.7,0-0.9c-0.1-3.2-7.6-24-10.1-24c-7.4,4.9-18.7,7.4-33.5,7.4
				c-12.9,0-25.4-2-30.7-2.8l-0.3,0c-0.4-0.1-0.8-0.1-1.2-0.1c-4.4,0-5.7,4.4-6.5,8.5l-0.1,0.6c-6.2,29-20.9,41.1-26.4,45.6
				c-3.6,2.9-5.9,25.9-4.3,41.6c1,9.9,3.1,11.7,3.8,12c7.9,4.1,7.3,10.2,7.3,10.4c0,0.3-0.2,0.5-0.4,0.7c-7.6,5.5-15.9,8.4-24,8.4
				L840,501z"/>
			<path class="st9" d="M917.2,202.4c2.3,0,6.8,2.5,8,3.6c1.7,1.5,22.5,6.1,28.8,6.1c0.7,0,1.2-0.1,1.5-0.2c2.3-1,12.3-6.8,16.8-6.8
				c1.1,0,1.9,0.4,2.1,1.3c1,4.5,3,12.5,10.9,16.2c41.5,19.4,19.6,53.7,19.6,53.7l11.2,8.5c0,0,0,45.4-30.6,73.4
				c-4.1,3.7-4.9,19.7-2.6,27.5c3.9,13.2,1.1,22.7,1.1,22.7c2.4,11.5,8,20.4,11.8,21.3c3.8,0.9,9.7,4.6,5.4,8.8
				c-9.7,9.3-15.3,12.5-21.2,14.3c-0.4,0.1-0.8,0.2-1.1,0.2c-3.8,0-5.3-6.9-5.6-11.4c-0.4-4.9-1.4-22.7-3.4-28.3
				c-1.9-5.7-1.7-18.8-1.7-20.7c0-1.8-7.2-25-11.1-25c-0.2,0-0.4,0.1-0.6,0.2c-8.5,5.6-21,7.3-33,7.3c-13.1,0-25.5-2-30.8-2.8
				c-0.5-0.1-0.9-0.1-1.4-0.1c-5.9,0-7,6.7-7.6,9.9c-6.1,28.4-20.1,40.2-26.1,45.1s-7.7,51.5-0.4,55.3c7.3,3.8,6.7,9.4,6.7,9.4
				c-10,7.3-18.8,8.2-23.4,8.2c-0.1,0-0.3,0-0.4,0c-4.5-0.1-7.3-5.2-6-9.1c6.1-17.3,3-41.9,1.4-46.8c-1.7-4.8-2-9.5,0.7-13.6
				c2.7-4.1,2.7-7.9,6.3-20.5c3.6-12.6,2.4-24.3-1.5-29.3c-2.5-3.1-6.7-7-9.5-9.5c-2.3-2-4.2-4.4-5.4-7.2
				c-4.7-10.3-1.1-16.3-0.1-21.6c1.1-6.1,21.9-33.2,63.7-48.2c41.8-15,46-34.2,49.5-44.2c3.5-10.1-5.4-25.6-7.3-28.6
				c-2-3.1-15.9-17.1-15.9-17.1C915.6,203,916.1,202.4,917.2,202.4 M917.2,200.4c-1.5,0-2.3,0.7-2.7,1.2c-0.4,0.6-0.9,1.6-0.4,3.3
				c0.1,0.3,0.3,0.6,0.5,0.8c5.5,5.6,14.2,14.7,15.6,16.8c2.8,4.2,10,18.3,7.1,26.8c-0.2,0.6-0.4,1.2-0.6,1.8
				c-3.4,10.2-9.2,27.4-47.7,41.2c-22.9,8.2-38.6,19.6-47.8,27.8c-10.4,9.3-16.5,18-17.2,21.9c-0.2,1-0.5,2.1-0.8,3.2
				c-1.3,4.8-3,10.7,1.1,19.6c1.3,2.9,3.3,5.5,5.9,7.8c4.1,3.6,7.4,6.9,9.2,9.2c3.3,4.1,4.7,14.9,1.1,27.5
				c-1.3,4.5-2.1,7.9-2.8,10.6c-1.1,4.7-1.7,7-3.2,9.4c-2.8,4.2-3.1,9.2-1,15.3c1.5,4.3,4.6,28.6-1.4,45.4c-0.9,2.6-0.4,5.7,1.3,8.1
				c1.6,2.3,4,3.6,6.5,3.6c0.1,0,0.3,0,0.5,0c8.3,0,16.8-3,24.6-8.6c0.5-0.3,0.8-0.8,0.8-1.4c0-0.3,0.7-7-7.8-11.4
				c-0.8-0.4-2.4-3.3-3.2-11.2c-0.8-7.2-0.7-16.9,0.2-25.3c1.1-10.7,2.9-14.8,3.8-15.4c5.6-4.6,20.4-16.8,26.7-46.2l0.1-0.6
				c0.8-3.9,1.9-7.7,5.6-7.7c0.3,0,0.7,0,1.1,0.1l0.3,0c5.3,0.8,17.8,2.8,30.8,2.8c14.6,0,25.9-2.4,33.5-7.2
				c0.7,0.7,2.5,3.1,5.4,10.9c2.1,5.7,3.6,11,3.7,11.9c0,0.2,0,0.5,0,0.8c0,3.7-0.1,15,1.8,20.4c1.5,4.5,2.5,18,3,24.5
				c0.1,1.4,0.2,2.6,0.3,3.4c0.3,4,1.8,13.2,7.6,13.2c0.6,0,1.1-0.1,1.7-0.3c6.1-1.9,11.9-5.1,22-14.8c2.3-2.2,2.3-4.4,1.9-5.8
				c-1-3.7-5.8-5.8-8.2-6.4c-2.6-0.6-7.8-8.5-10.2-19.3c0.5-2.2,2.3-11.3-1.3-23.4c-2.3-7.6-1.1-22.6,2-25.5
				c16.2-14.8,23.8-34.4,27.4-48.2c3.8-14.9,3.9-26.2,3.9-26.7c0-0.6-0.3-1.2-0.8-1.6l-9.8-7.4c2.3-4.3,7.6-16.3,3.8-29.3
				c-3.1-10.7-11.6-19.3-25.2-25.7c-7.1-3.3-8.8-10.8-9.7-14.8c-0.2-0.7-0.9-2.8-4-2.8c-3.6,0-9.5,2.9-15.1,5.8
				c-1,0.5-1.9,1-2.4,1.2c-0.1,0-0.3,0-0.8,0c-6,0-25.2-4.3-27.5-5.6C925,203.2,920.1,200.4,917.2,200.4L917.2,200.4z"/>
		</g>
		<g>
			<path class="st15" d="M1016,284.8l1.4-0.3c0-1.1-0.1-2.2-0.2-3.3c-6.2,19.2-18.3,44.1-39.8,48.2l2.2,3.7l2.3,5.9l1.9,11.7
				l0.2,7.5c1-0.5,0.4,0.4,1.4-0.1C1016,330.1,1016,284.8,1016,284.8z"/>
			<path class="st15" d="M954.1,365.9l-4.3-6.9l-3.3-5.9l-4.1-10.4c-15.3,8.1-31.8,20.2-54.6,20.9l-1.7,10.7l0.3,0.3
				c1.3-1.7,3.3-2.8,6.3-2.3c10.1,1.6,45.5,7.3,63.4-4.2L954.1,365.9z"/>
			<g>
				<path class="st16" d="M963.7,378.8c0,0.1,0,0.1,0.1,0.2c0,0,0,0,0.1,0L963.7,378.8z"/>
			</g>
		</g>
		<path class="st17" d="M825.9,342.5c1.1-6.1,21.9-33.2,63.7-48.2c41.8-15,46-34.2,49.5-44.2c0.8-2.3,0.9-4.8,0.7-7.4
			c0.1,0,0.1,0,0.1,0s6,32.8-16.9,51.5c-22.9,18.7-64,10.9-87.4,38.4L825.9,342.5z"/>
		<g>
			<g class="st18">
				<path class="st9" d="M931.1,265.4l4.6-4c0.8-1.2,2.1-2.1,2.7-3.2c4.1-5.2,6.2-10,7.9-13.6c4.7-9.5-2.1-26-3.7-29.1
					c-0.4-0.8-1.3-2.2-2.5-4c9.7,1,20,2.1,20,2.1l12.5,6.8l3.9,0.7l8.3,4.1l4.3,4.9l20.5,14.2c3.2,3.2-6.2,3-2.6,6.2
					c0.2,1.3,0.4,2.6-4.1,3.9l11.3,6.2c4.7,1.4,3.6,3,4.9,7.1c-0.5,1.5-1.5,2.1-1.5,2.1l1.3,12.7c-0.6,0-1.1-0.1-1.1-0.1
					c0.2,1.2,0.4,2.3,0.6,3.3l-0.4,2.6c0,0-0.7,21.7-12.5,42.2c-3.3-6.3-10.6-25.8-10.6-25.8c-1.5,6.5-7,6.9-7,6.9
					c1.6-5.8-0.5-19.7-0.5-19.7c-4.5,7.2-6.5,4.9-6.5,4.9c-0.4-3.7-3.6-20.9-3.6-20.9c-4.4,6.2-7.9,5.6-7.9,5.6c0.6-4.3-2-15-2-15
					c-2.1,2.3-6.7,4.2-6.7,4.2s-2.7-15.7-6.6-18.5C954.1,252.4,946.1,264.3,931.1,265.4z"/>
			</g>
			<path class="st19" d="M1018.4,270.9c0,0,5.6-0.2,7.2-1.3c0,0-9.3-16.7-9.9-20.2l9-2.7c0.3,0.1-24.2-27.2-46.5-34.7l-2.2-5.3
				l-6.1,0.2l-17,2.7c0,0-20.7,0.4-31.1,0.6c4.1,4.2,9,9.5,10.2,11.3c1.9,2.9,10.8,18.5,7.3,28.6c-1.3,3.7-2.7,8.6-5.9,14
				c11.2-3.2,20.3-12.7,20.3-12.7c4.2,2.3,6.7,15,6.7,15s4.2-2.4,6.1-5c0,0,3.9,10.4,3.8,14.7c0,0,3.6,0.1,7.1-6.5
				c0,0,5.3,16.7,6.2,20.3c0,0,2.2,2,5.9-5.7c0,0,3.8,13.5,2.9,19.5c0,0,5.5-1.1,6.1-7.7c0,0,13.5,24,16.6,25.7
				c0,0,7.1-1.7,5.6-30.1c0,0,7.1-1.6,9.7-2.1C1032.9,288.8,1023.7,288.9,1018.4,270.9z"/>
			<path class="st20" d="M978.2,213.1l-0.8-0.3l-0.3-0.8l-1.7-4.2l-4.7,0.2l-16.9,2.7l-0.1,0l-0.1,0c-0.2,0-11.5,0.2-21.6,0.4
				l-4.2,1.8c2.9,3.1-0.8,1.8-1.5,2.1c2.6,2.8,4.9,5.4,5.6,6.5c0.6,1,2,3.2,3.4,6.2c28.3,6.1,46.2-5.8,55.4-8.8
				C986.5,216.5,982.4,214.5,978.2,213.1z"/>
			<path class="st20" d="M993.8,232.9c0,0,5.9,9.4,0.9,10.4c-5,1-11.4-5.7-11.4-5.7s0,5.3-2.9,4.5c-2.9-0.8-6.1-5.8-6.3-6
				c-0.2-0.3,2.3,9.6,7.4,8.7c5-0.9,3-4,3-4s5.2,7.6,9.4,6.8S1003.9,243.4,993.8,232.9z"/>
			<path class="st20" d="M1007.8,255.6c0,0,5.2,8.3,0.8,9.1c-4.4,0.9-10-5.1-10-5.1s0,4.7-2.5,4c-2.6-0.7-5.3-5.1-5.6-5.3
				s2,8.5,6.5,7.7s2.6-3.5,2.6-3.5s4.6,6.7,8.3,6S1016.7,264.8,1007.8,255.6z"/>
			<path class="st20" d="M960.7,265.2c-1.8-7.2-4.2-11.7-7.1-13.4c-0.2-0.1-0.3-0.2-0.4-0.4c-0.3-0.4-0.1-1,0.3-1.3c0,0,0,0,0,0
				c0,0,0,0,0.1,0c0.1,0,0.1-0.1,0.2-0.1c1-0.2,3.5-0.4,6,0c3.4,0.6,5.6,2,6.5,4.1l0,0c0.3,0.5,0.8,1.6,1.7,4l0,0l0.1,0.3
				c1,2.2,1.9,4.1,2.9,4.4c0.5,0.2,1.2,0,2.1-0.6c0.4-0.2,0.9-0.6,1.4-1l0.9-0.7l0-0.1l0.1,0.1l0,0l0.1,0.1l3.3,4.7l0.3,0.5
				c1.7,2.4,6.9,9.8,8.5,8.9c0.2-0.1,0.6-0.5,0.8-2.1l0.5-2.9l1.3,2.6c4.6,9.2,18,33.5,25.1,35.6c0.7,0.2,1.3,0.2,1.8-0.1
				c1-0.6,2.3-2.6,2.7-8.7l0.8,0.7c-0.1,13.2-3,18.4-4.8,20.3l-0.7,0.8l-0.7-0.8c-2.8-3.2-9.8-14.7-15.3-24.4l-1.3-2.3l-0.3,2.6
				c-0.2,2.4-1.2,4.3-2.8,5.6l-1.5,1.2l-0.1-1.9c-0.2-6.7-3-16.4-3.1-16.8l-0.6-2.1l-0.9,2c-1.4,2.9-2.5,4.2-3.1,4.8l-1.1,1
				l-0.4-1.5c-1.5-5.3-5.6-18.3-5.8-18.9l-0.7-2.2l-1.1,2.1c-1.3,2.3-2.7,4-4.4,5.1l-1.2,0.8l-0.2-1.5c-0.7-4.3-2.8-10.3-3.5-12.2
				l-0.7,1c-0.6,0.9-1.8,1.6-2.9,2.3c-0.5,0.3-0.9,0.6-1.3,0.9c0,0,0,0-0.1,0c-0.2,0.1-0.5,0.2-0.8,0.1
				C961,265.8,960.8,265.5,960.7,265.2z"/>
			<path class="st21" d="M1025.6,247.1c0.4-0.6,0.3-0.8-4.4-5.5c-2.4-2.4-6.2-6.1-10.9-10.2c-8-7-20-16.1-31.5-20.1l-2.3-5.6
				l-6.9,0.3l-17,2.7c-1.3,0-21.5,0.4-31.4,0.6l0,0.6c0.4,0.4,0.9,0.9,1.3,1.4c10.6-0.2,30-0.5,30.2-0.5l17.1-2.7l5.4-0.2l2.1,5.1
				l0.4,0.1c19.5,6.5,40.4,28.2,45.1,33.2l-8.3,2.5l0.2,0.9c0.6,3.2,7.4,15.7,9.5,19.5c-1.4,0.4-4,0.7-5.8,0.7l-1.3,0l0.4,1.3
				c3.4,11.3,8.2,15.7,10.9,17.5c-3.1,0.7-7.6,1.7-7.8,1.8l-0.8,0.2l0,0.8c1.2,22.9-3.3,27.9-4.5,28.9c-2.6-2.4-10.9-16.3-15.8-25
				l-1.6-2.8l-0.3,3.2c-0.4,3.9-2.5,5.6-4,6.4c0.2-6.6-3-17.7-3.1-18.2l-0.7-2.6l-1.1,2.4c-2,4.3-3.4,5.1-4,5.3c-0.1,0-0.1,0-0.1,0
				c-1.2-4.5-5.8-19.2-6-19.8l-0.7-2.3l-1.1,2.1c-2.1,3.9-4.2,5.3-5.3,5.8c-0.5-4.9-3.7-13.4-3.8-13.8l-0.7-1.8l-1.1,1.5
				c-1.1,1.6-3.3,3.1-4.6,4c-0.8-3.6-3.2-12.2-6.9-14.3l-0.7-0.4l-0.5,0.6c-0.1,0.1-8.5,8.8-18.9,12.1c-0.5,0.8-1,1.7-1.5,2.6
				l0.9-0.3c9.9-2.7,18.1-10.2,20.4-12.5c2.8,2.5,5,10.7,5.6,13.9l0.3,1.4l1.2-0.7c0.1-0.1,3.1-1.8,5.2-3.9c1.1,3,3.3,9.6,3.2,12.7
				l0,1l1,0c0.4,0,3.5,0,6.9-5.1c1.5,4.6,4.8,15.3,5.5,18.1l0.1,0.3l0.2,0.2c0.1,0.1,0.8,0.7,1.9,0.4c1.4-0.3,2.8-1.6,4.3-4.1
				c1,4.1,2.9,12.4,2.3,16.5l-0.2,1.4l1.4-0.3c0.1,0,4.6-1,6.4-5.9c3.8,6.7,12.9,22.3,15.7,23.8l0.3,0.2l0.4-0.1
				c0.8-0.2,7.7-2.7,6.4-30.3c1.9-0.4,6.8-1.5,8.8-1.9c0.3-0.1,1.1-0.2,1.2-1c0.1-0.8-0.5-1.1-1.1-1.5c-1.8-1-7.1-4.1-11-16
				c1.9-0.1,5.1-0.5,6.4-1.4l0.7-0.5l-0.4-0.8c-2.3-4.2-8.2-15.1-9.5-19c0,0,5.9-1.4,7.7-2.3
				C1024.9,247.7,1025.4,247.3,1025.6,247.1z"/>
		</g>
		<path class="st15" d="M847.6,381.5c-2.5-3.1-6.7-7-9.5-9.5c-2.3-2-4.2-4.4-5.4-7.2c0,0-7.8-8.7-6.8-22.3
			c-0.9,5.3-4.6,11.3,0.1,21.6c1.3,2.8,3.2,5.2,5.4,7.2c2.8,2.5,7,6.4,9.5,9.5c3.9,5,5.1,16.6,1.5,29.3c-3.6,12.6-3.6,16.4-6.3,20.5
			c-2.7,4.1-2.4,8.7-0.7,13.6c1.7,4.8,4.7,29.5-1.4,46.8c-1.3,3.8,1.5,9,6,9.1c0.2,0,0.3,0,0.5,0c4.8-18.3,3.1-50.6,1.5-55.1
			c-1.7-4.8-2-9.5,0.7-13.6c2.7-4.1,2.7-7.9,6.3-20.5C852.7,398.1,851.5,386.5,847.6,381.5z"/>
		<g>
			<path class="st8" d="M994.6,204.1c0,0-0.7,5.3,0.5,8.1c1.2,2.7,1.9,1,2.2-0.5c0,0,2.1,8.8,4.2,10.9s2.2-0.3,2-2.2
				c-0.2-1.9-0.6-4.5-0.6-4.5s3.5,11.7,8.4,12c4.9,0.3-1.1-3.5-2.7-8.3c0,0,8,6.1,9.7,4.8c1.7-1.3-5.9-5.2-7.4-10.3
				c0,0,4.7,1.7,6.2,1.2c1.5-0.5-5.9-6.5-7.5-9.9c-1.6-3.4-15.1-5.4-15.1-5.4L994.6,204.1z"/>
			<path class="st9" d="M1011.9,228.3c-0.2,0-0.4,0-0.6,0c-3.2-0.2-5.8-4.7-7.3-8.3c0,0.1,0,0.1,0,0.2c0.2,2.1,0,3.2-0.7,3.5
				c-0.7,0.4-1.6-0.3-2.1-0.9c-1.7-1.6-3.2-6.8-3.9-9.5c-0.2,0.4-0.5,0.6-0.9,0.7c-0.8,0.1-1.4-1-1.7-1.7c-1.2-2.7-0.6-7.8-0.5-8.3
				l-0.1-4.6l0.6,0.1c1.4,0.2,13.7,2.1,15.5,5.6c0.7,1.5,2.8,3.7,4.5,5.5c2.5,2.6,3.4,3.7,3.2,4.5c-0.1,0.3-0.2,0.5-0.5,0.5
				c-1.2,0.4-4-0.3-5.5-0.8c1,2.1,3,4.1,4.7,5.6c1.6,1.5,2.6,2.5,2.6,3.4c0,0.2-0.1,0.5-0.4,0.8c-1.5,1.1-6-1.7-8.7-3.6
				c0.7,1.2,1.5,2.3,2.2,3.2c1.2,1.5,2,2.6,1.5,3.4C1013.4,228.2,1012.7,228.3,1011.9,228.3z M1003.4,215.7c1,3.2,4.3,11.4,8,11.7
				c1.2,0.1,1.4-0.1,1.4-0.1c0.1-0.3-0.8-1.4-1.5-2.3c-1.1-1.4-2.5-3.2-3.1-5.2l-0.5-1.6l1.3,1c3.7,2.8,8.2,5.4,9.1,4.8
				c0.1-0.5-1.2-1.7-2.2-2.7c-2-1.9-4.5-4.3-5.3-7l-0.3-0.9l0.9,0.3c1.6,0.6,4.5,1.4,5.6,1.2c-0.3-0.6-1.8-2.2-2.9-3.4
				c-1.8-1.9-3.9-4.1-4.7-5.8c-1.2-2.5-10.1-4.4-14.1-5l0.1,3.5l0,0c0,0.1-0.7,5.2,0.5,7.8c0.5,1,0.7,1.1,0.7,1.1
				c0,0,0.3-0.4,0.6-1.5l0.5-2.2l0.5,2.2c0.6,2.4,2.4,9,4.1,10.7c0.7,0.7,1,0.7,1,0.7c0,0,0.4-0.3,0.2-2.5c-0.2-1.9-0.6-4.4-0.6-4.5
				L1003.4,215.7z"/>
		</g>
		<g>
			<g>
				<path class="st22" d="M790.6,271.3c-0.3,0-0.5,0-0.5,0l-0.1,0l-0.1,0c-24.4-12.4-30.5-24.9-33.5-31c-0.7-1.5-1.3-2.7-1.8-3
					c-1.7-0.9-2.1-3.2-2.6-5.4c-0.4-1.7-0.8-3.5-1.7-3.9c-1.5-0.7-1.4-2.7-1.3-4.8c0.1-2,0.2-4.3-0.9-5.8c-2.3-3.3-1.5-7.5-0.7-9.7
					c0.2-0.5,0-0.9-0.3-1.6c-0.5-1-1.1-2.4-0.6-4.7c0.1-0.4,0.1-0.4,0.1-0.5c0-0.1,0-0.3,0.1-1.2c0.1-0.6,0.4-1.4,0.8-2.5
					c0.9-2.3,2.2-5.7,1.6-8.9c-0.9-4.4,1.4-8.2,3.1-10.9c0.2-0.3,0.4-0.6,0.5-0.9c1.6-2.8,2.9-8.9,2.9-12.6c0-4,3.5-7.5,5.3-8.2
					c1.6-0.6,3.4-1.5,5-3.7c1.5-2.1,0.3-6.7,0.3-6.7l-0.1-0.2l0.1-0.2c4.2-6.9,7.8-7.9,10.7-8.6c1-0.3,1.9-0.5,2.8-1
					c3.3-1.7,5.4-9.3,5.4-9.3l0-0.1l0.1-0.1c3.6-4.4,6.1-5.3,8.8-5.3c0.5,0,1,0,1.6,0.1c0.5,0,1,0.1,1.6,0.1c1,0,1.9-0.1,2.8-0.4
					c2.7-0.9,3.9-2.4,5.4-4.4c1.2-1.7,2.7-3.5,5.3-5.4c2.3-1.7,4.5-2.4,6.9-2.4c1,0,1.9,0.1,2.8,0.2c0.9,0.1,1.8,0.2,2.7,0.2
					c0.5,0,0.9,0,1.3-0.1c4.4-0.6,10.1-4.3,10.2-4.4c4.1-2.4,6.8-3.5,8.6-3.5c1.6,0,2.4,0.9,3.1,1.8c0.8,1,1.6,2,3.9,2
					c0.4,0,0.8,0,1.2-0.1c3.9-0.5,7.2-1.4,10.1-2.2c3.5-1,6.6-1.8,9.9-1.8c0.3,0,0.7,0,1,0c3.3,0.2,6.1,2.6,8.6,4.8
					c2.1,1.8,4,3.4,5.7,3.4c0.5,0,1-0.1,1.4-0.4c2-1.2,4.2-1.9,6.6-1.9c2.6,0,5.2,0.8,7.3,2.2c1.3,0.9,2.6,2.8,4.1,4.9
					c2.1,3,4.5,6.4,6.7,6.4c0.3,0,0.5,0,0.8-0.1c2.2-0.8,4-1.2,5.5-1.2c3.6,0,4.9,2.3,6,4.3c0.5,0.8,0.9,1.6,1.5,2.2
					c2.6,2.5,5.4,3.7,5.4,3.7c8.9,3.2,9.5,8.5,9.6,8.7l0,0.1l0,0.1c-3.8,14.7-17.4,17.9-17.6,18l-0.2,0.1l-0.2-0.1
					C903.9,140,881,132,857.2,132c-19.9,0-39.7,5.4-57.2,15.6c-33.4,19.4-40.2,56.4-40.2,56.7c-5.3,48.9,31.5,63.6,31.8,63.8
					l0.1,0.1l0.1,0.1c0.7,1,0.9,1.7,0.6,2.3C792.1,271.1,791.5,271.3,790.6,271.3z"/>
				<path class="st23" d="M871.4,100.6c0.3,0,0.7,0,1,0c5.8,0.3,10.3,8.2,14.4,8.2c0.6,0,1.1-0.2,1.7-0.5c2-1.3,4.2-1.8,6.3-1.8
					c2.6,0,5.1,0.8,7,2.1c3.2,2.2,7,11.3,11,11.3c0.3,0,0.6-0.1,1-0.2c2.2-0.8,4-1.2,5.3-1.2c4.8,0,5.1,4.2,7.2,6.3
					c2.7,2.6,5.6,3.8,5.6,3.8c8.7,3.2,9.3,8.3,9.3,8.3c-3.8,14.6-17.2,17.6-17.2,17.6c-21.4-16.4-44.6-23.2-66.7-23.2
					c-21,0-40.9,6-57.5,15.6c-34.1,19.7-40.5,57.1-40.5,57.1c-5.4,49.8,32.2,64.3,32.2,64.3c1.5,2,0,2.3-0.7,2.3c-0.2,0-0.4,0-0.4,0
					c-31.4-15.9-32.5-32.5-35.3-33.9c-2.8-1.5-2-8.2-4.3-9.3c-2.4-1.1,0.4-7.1-2-10.5c-2.4-3.3-1.2-7.7-0.7-9.3
					c0.5-1.6-1.7-2.7-1-6.3c0.2-0.9,0,0,0.2-1.7c0.2-1.7,3.3-6.8,2.4-11.5s1.8-8.5,3.6-11.4s3-9.2,3-12.9c0-3.6,3.2-7.1,4.9-7.7
					c1.7-0.6,3.6-1.6,5.2-3.9c1.7-2.3,0.4-7.1,0.4-7.1c5.6-9.1,9.8-7.6,13.3-9.4c3.5-1.9,5.6-9.7,5.6-9.7c3.6-4.4,6-5.1,8.4-5.1
					c1,0,2.1,0.1,3.1,0.1c0.9,0,1.9-0.1,3-0.4c5.2-1.7,5.1-5.8,10.8-9.9c2.6-1.9,4.7-2.3,6.6-2.3c1.9,0,3.6,0.4,5.5,0.4
					c0.5,0,0.9,0,1.4-0.1c4.5-0.6,10.4-4.4,10.4-4.4c4.4-2.6,6.8-3.4,8.3-3.4c3.1,0,2.3,3.8,7,3.8c0.4,0,0.8,0,1.3-0.1
					C859.8,103.6,865.2,100.6,871.4,100.6 M871.4,99.6c-3.4,0-6.6,0.9-10,1.8c-3,0.8-6.2,1.7-10,2.1c-0.4,0.1-0.8,0.1-1.2,0.1
					c-2.1,0-2.8-0.8-3.5-1.8c-0.7-0.9-1.6-2-3.5-2c-1.9,0-4.6,1.1-8.8,3.6l0,0l0,0c-0.1,0-5.7,3.7-9.9,4.3c-0.4,0.1-0.8,0.1-1.3,0.1
					c-0.9,0-1.7-0.1-2.6-0.2c-0.9-0.1-1.9-0.2-2.8-0.2c-2.6,0-4.8,0.8-7.2,2.5c-2.7,1.9-4.1,3.9-5.4,5.5c-1.5,2-2.6,3.4-5.1,4.2
					c-0.8,0.3-1.7,0.4-2.7,0.4c-0.5,0-1,0-1.5-0.1c-0.5,0-1.1-0.1-1.6-0.1c-2.4,0-5.2,0.7-9.2,5.5l-0.1,0.2l-0.1,0.2
					c-0.6,2.1-2.6,7.7-5.1,9c-0.8,0.4-1.7,0.7-2.7,0.9c-3,0.8-6.7,1.8-11,8.9l-0.2,0.4l0.1,0.4c0.3,1.2,0.9,4.7-0.2,6.3
					c-1.5,2.1-3.3,3-4.8,3.6c-2.2,0.8-5.6,4.7-5.6,8.6c0,3.5-1.3,9.7-2.9,12.4c-0.2,0.3-0.3,0.6-0.5,0.9c-1.7,2.8-4.1,6.6-3.2,11.2
					c0.6,3-0.7,6.3-1.6,8.6c-0.4,1.1-0.8,2-0.8,2.6c-0.1,0.9-0.1,1.2-0.1,1.3c0,0.1,0,0.2-0.1,0.4c-0.4,2.4,0.2,3.9,0.7,5
					c0.3,0.7,0.4,1,0.3,1.3c-0.8,2.3-1.7,6.7,0.8,10.2c1,1.4,0.9,3.6,0.8,5.5c-0.1,2.3-0.2,4.5,1.6,5.3c0.7,0.3,1.1,2.1,1.4,3.6
					c0.5,2.2,1,4.7,2.9,5.7c0.3,0.2,1,1.5,1.6,2.7c1.4,2.9,3.7,7.6,8.8,13.2c6,6.6,14.4,12.7,24.9,18l0.2,0.1l0.2,0c0,0,0.3,0,0.5,0
					c1.4,0,1.9-0.6,2.2-1c0.6-1.1-0.3-2.4-0.6-2.8l-0.2-0.2l-0.3-0.1c-0.1,0-9.3-3.7-17.8-13.3c-7.8-8.8-16.5-24.7-13.7-50
					c0.1-0.6,1.8-9.7,7.4-20.9c5.3-10.6,15.2-25.4,32.6-35.5c17.5-10.1,37.2-15.5,57-15.5c23.7,0,46.6,7.9,66.1,23l0.4,0.3l0.5-0.1
					c0.1,0,14-3.3,17.9-18.3l0-0.2l0-0.2c0-0.2-0.7-5.8-9.9-9.1c0,0-2.8-1.1-5.2-3.5c-0.5-0.5-1-1.3-1.4-2.1c-1.1-2-2.6-4.5-6.5-4.5
					c-1.6,0-3.5,0.4-5.7,1.2c-0.2,0.1-0.4,0.1-0.6,0.1c-2,0-4.4-3.4-6.3-6.2c-1.5-2.1-2.8-4-4.2-5c-2.2-1.5-4.8-2.3-7.5-2.3
					c-2.4,0-4.8,0.7-6.8,1.9c-0.4,0.2-0.7,0.3-1.1,0.3c-1.5,0-3.4-1.6-5.4-3.3c-2.6-2.2-5.5-4.7-8.9-4.9
					C872.1,99.7,871.7,99.6,871.4,99.6L871.4,99.6z"/>
			</g>
			<path class="st24" d="M931.8,128.8c0,0-2.9-1.1-5.6-3.8c-2.7-2.6-2.4-8.9-12.5-5.1c-4.4,1.7-8.6-8.8-12-11.2s-8.7-3.2-13.3-0.4
				c-4.5,2.8-9.5-7.4-16-7.7c-6.6-0.3-12.1,2.8-20.9,3.9c-8.6,1-2.7-8.1-15.6-0.8l1.3,4.1l99.3,38.5c1.9-2.4,3.6-5.4,4.6-9.3
				C941.1,137.1,940.5,132,931.8,128.8z"/>
			<path class="st25" d="M824.4,123.9c-12,3.4-45,14.2-66.3,55.2c-4.6,8.7-16.3,46.8,15,78.2c0,0,6.3,5.7,10.5,7
				c-10.7-7.3-28.2-24.9-24.4-60c0,0,6.4-37.4,40.5-57.1c34-19.7,82.7-24.3,124.3,7.7c0,0,6.8-2.1,11.5-7.2
				C927.1,140.9,881.1,107.6,824.4,123.9z"/>
		</g>
		<g>
			<path class="st14" d="M947.9,222.6c-12.1,0-31.7-16.8-32.6-17.5c0,0-0.1,0-0.1-0.1c-0.2-0.2-15.8-17.3-2.7-38.4
				c0.3-0.4,4.5-8.3,7.4-13.5c0,0,0-0.1,0.1-0.1l6.9-10l-6.5-2.7c-0.3-0.1-0.5-0.4-0.6-0.6c-0.1-0.3,0-0.6,0.1-0.9
				c0.1-0.2,12.9-17.8,33.9-17.8c1.1,0,2.1,0,3.2,0.1c0.5,0,0.8,0.4,0.9,0.9s-0.2,0.9-0.6,1.1c-0.1,0-9.6,3.6-14.5,8.2
				c2.2-0.2,5-0.3,6.9-0.3c5.1,0,12.2,0.5,16.7,2.8c0.4,0.2,0.6,0.7,0.5,1.1c-0.1,0.4-0.5,0.8-1,0.8c0,0,0,0,0,0c0,0-0.5,0-1.3,0
				c-4.5,0-8.3,0.3-11,0.7c4.5,1.4,12.5,4.3,17.8,8.3c0.4,0.3,0.5,0.8,0.3,1.2c-0.2,0.3-0.5,0.6-0.9,0.6c-0.1,0-0.2,0-0.3,0
				c-0.1,0-4.9-1.4-9.1-1.7c0.9,1.4,1.7,2.9,2.4,4.5c0.8,1.8,2.5,4,4.8,4.6c1.2,0.3,5.2,1.1,10.2,2.1c11.6,2.3,29.1,5.7,34.7,7.9
				c7.7,3,10.4,12.2,12.1,18.3c0.2,0.6,0.4,1.2,0.5,1.8c1.4,4.8-2.9,8.2-6,9.7c0,0.1,0,0.1,0,0.2c0.1,1.9-1.5,5.9-6,9.1
				c-2,1.4-4.9,2.1-8.7,2.1c0,0,0,0,0,0c-3.8,0-8.5-0.7-13.9-2.1c-0.4-0.1-0.9-0.2-1.5-0.2c-5.9,0-17.3,5.1-20.2,6.9
				c-0.8,0.5-1.8,1.5-2.9,2.6c-3.2,3.1-8,7.8-16.4,9.9C949.7,222.5,948.8,222.6,947.9,222.6z"/>
			<path class="st9" d="M953.9,122c1,0,2.1,0,3.1,0.1c0,0-12.6,4.8-16.8,10.5c0,0,0,0,0,0c0,0,0,0,0,0c0.2-0.2,4.3-0.7,9.4-0.7
				c5.5,0,12.1,0.6,16.3,2.7c0,0-0.5,0-1.4,0c-3.3,0-11.4,0.2-14.6,1.7c0,0,13.3,3.4,20.8,9.1c0,0-6-1.7-10.6-1.7
				c-0.3,0-0.5,0-0.8,0c1.4,1.8,2.5,3.8,3.5,5.9c0.9,2,2.8,4.5,5.4,5.2c3.9,1.1,36.8,6.8,44.9,9.9c8.1,3.1,10.3,13.6,12,19.4
				c1.7,5.8-6.4,8.9-6.4,8.9c1,0.6-0.1,5.4-5.3,9.1c-2,1.4-5,1.9-8.1,1.9c-5,0-10.5-1.3-13.7-2.1c-0.5-0.1-1.1-0.2-1.8-0.2
				c-6.1,0-17.7,5.2-20.7,7c-3.3,2-7.8,9.5-19,12.4c-0.8,0.2-1.6,0.3-2.4,0.3c-11.8,0-31.9-17.3-31.9-17.3s-15.4-16.5-2.6-37.2
				c0.4-0.6,7.4-13.5,7.4-13.5l7.6-11l-7.6-3.2C920.8,139.4,933.2,122,953.9,122 M953.9,120L953.9,120c-21.5,0-34.2,17.5-34.7,18.2
				c-0.4,0.5-0.5,1.1-0.3,1.7c0.2,0.6,0.6,1.1,1.1,1.3l5.3,2.2l-6.2,9c0,0.1-0.1,0.1-0.1,0.2c-2.8,5.1-7,12.9-7.3,13.5
				c-7.1,11.4-5.9,21.5-3.7,28.1c2.4,7,6.4,11.4,6.5,11.6c0,0.1,0.1,0.1,0.2,0.2c0.8,0.7,20.8,17.7,33.2,17.7c1,0,2-0.1,2.9-0.3
				c8.7-2.2,13.6-7,16.8-10.2c1.1-1.1,2-2,2.7-2.4c2.7-1.7,14-6.7,19.6-6.7c0.5,0,0.9,0,1.3,0.1c5.6,1.4,10.3,2.2,14.2,2.2
				c4,0,7.1-0.8,9.3-2.3c4.3-3.1,6.3-7,6.4-9.6c0.8-0.4,1.8-1.1,2.8-1.9c3-2.5,4.1-5.6,3.2-8.7c-0.2-0.6-0.3-1.2-0.5-1.8
				c-1.8-6.3-4.5-15.8-12.7-18.9c-5.7-2.2-23.3-5.6-34.9-7.9c-4.8-0.9-9-1.8-10.2-2.1c-1.8-0.5-3.4-2.4-4.1-4.1
				c-0.4-1-0.9-2-1.4-2.9c3.5,0.4,6.9,1.4,7,1.4c0.2,0.1,0.4,0.1,0.6,0.1c0.7,0,1.4-0.4,1.8-1.1c0.4-0.9,0.2-1.9-0.6-2.5
				c-4-3-9.4-5.4-13.9-7c1.9-0.1,4.1-0.2,6.5-0.2c0.8,0,1.3,0,1.3,0c0,0,0,0,0,0c0.9,0,1.7-0.6,1.9-1.5c0.2-0.9-0.2-1.8-1-2.3
				c-4.7-2.4-12-2.9-17.2-2.9c0,0-1.7,0-3.7,0.1c4-2.8,9.4-5.2,11.8-6.1c0.9-0.3,1.4-1.2,1.3-2.1s-0.9-1.6-1.8-1.7
				C956.1,120.1,955,120,953.9,120L953.9,120z"/>
		</g>
		<path class="st15" d="M948.6,180c0,0-3.5-3.3-1.3-5.6c1.7-1.8,8.4-2.5,12.7-3.3c0,0,5.6-1.4,7,2.7c0,0,3.1,4.4-4.1,6.8
			C955.7,183.2,948.6,180,948.6,180z"/>
		<path class="st15" d="M925.7,155.2c0,0-7.4,11.3-12.5,12.3c-12.4,20.5,2.8,36.8,2.8,36.8s23.1,19.8,34.3,17
			c9.5-2.4,14.2-8.1,17.4-11.1C956.8,219,888,186.3,925.7,155.2z"/>
		<path class="st26" d="M1022,174.5c-1.8-4.1-4.4-8-8.8-9.6c-8.1-3.1-40.9-8.8-44.9-9.9c-0.3-0.1-0.5-0.2-0.7-0.3
			c1.6,2.5,7,7.4,6.4,14.7C974,169.4,1011.3,172.4,1022,174.5z"/>
		<g>
			<path class="st27" d="M1025.5,186.1c-0.3,2.8-3.6,4.5-3.6,4.5c-10.9,5.8-19.7,2.6-22.5,1c1.4,1,4.2,2.7,4.2,2.6
				c0.1,0,8.9,1,8.9,1l6.7-1.3c0-0.4-0.1-0.7-0.3-0.8C1018.9,193.2,1025.2,190.7,1025.5,186.1z"/>
		</g>
		<path class="st9" d="M998.7,191c0,0,0.2,0.3,0.7,0.7c0.2,0.2,0.5,0.4,0.9,0.7c0.4,0.2,0.8,0.5,1.2,0.7c0.5,0.2,1,0.4,1.6,0.6
			c0.6,0.2,1.2,0.4,1.8,0.5c0.6,0.1,1.3,0.3,2,0.3c0.3,0,0.7,0.1,1,0.1l1,0c0.7,0,1.4,0,2.1-0.1c0.3,0,0.7,0,1-0.1
			c0.3,0,0.7-0.1,1-0.1c0.6-0.1,1.3-0.2,1.9-0.3c0.6-0.1,1.1-0.2,1.7-0.4c1-0.2,1.9-0.5,2.4-0.7c0.6-0.2,0.9-0.3,0.9-0.3l0.1,0
			c0.6-0.2,1.3,0.2,1.4,0.8c0.2,0.6-0.2,1.3-0.8,1.4c0,0-0.1,0-0.1,0c0,0-0.4,0.1-1,0.2c-0.6,0.1-1.5,0.3-2.6,0.5
			c-0.5,0.1-1.1,0.1-1.8,0.2c-0.6,0.1-1.3,0.1-2,0.1c-0.3,0-0.7,0-1,0.1c-0.4,0-0.7,0-1.1,0c-0.7,0-1.5,0-2.2-0.1l-1.1-0.1
			c-0.4-0.1-0.7-0.1-1.1-0.2c-0.7-0.1-1.4-0.3-2.1-0.5c-0.7-0.2-1.3-0.4-1.9-0.7c-0.6-0.3-1.1-0.5-1.6-0.8c-0.5-0.3-0.9-0.6-1.2-0.8
			c-0.4-0.3-0.6-0.5-0.9-0.8c-0.4-0.5-0.7-0.8-0.7-0.8c-0.1-0.1,0-0.2,0-0.2C998.6,190.9,998.7,191,998.7,191z"/>
		<path class="st9" d="M885,377.2c0,0,0-0.1,0.1-0.3c0.1-0.2,0.2-0.5,0.3-0.9c0.3-0.8,0.6-1.9,1-3.3c0.2-0.7,0.4-1.4,0.5-2.3
			c0.2-0.8,0.3-1.7,0.5-2.5c0.2-0.9,0.2-1.8,0.3-2.7c0.1-0.9,0.1-1.9,0.1-2.9c0-1-0.1-1.9-0.1-2.8c-0.1-0.5-0.1-0.9-0.2-1.4
			c-0.1-0.5-0.1-0.9-0.2-1.3c-0.2-0.9-0.3-1.7-0.7-2.5c-0.1-0.4-0.3-0.8-0.4-1.1c-0.1-0.4-0.3-0.7-0.4-1c-0.3-0.6-0.6-1.2-0.9-1.7
			c-0.3-0.5-0.6-0.9-0.9-1.2c-0.5-0.7-0.8-1.1-0.8-1.1l0,0c-0.1-0.1,0-0.2,0-0.3c0.1-0.1,0.2,0,0.3,0c0,0,0.3,0.4,0.9,1.1
			c0.3,0.3,0.6,0.7,1,1.2c0.3,0.5,0.7,1.1,1,1.7c0.2,0.3,0.4,0.7,0.5,1c0.2,0.4,0.3,0.8,0.5,1.1c0.4,0.8,0.5,1.7,0.8,2.5
			c0.1,0.4,0.2,0.9,0.3,1.4c0.1,0.5,0.2,0.9,0.3,1.4c0.1,1,0.2,2,0.3,2.9c0,1,0.1,2,0,3c0,1-0.1,1.9-0.2,2.9
			c-0.1,0.9-0.2,1.8-0.3,2.7c-0.1,0.8-0.3,1.6-0.4,2.4c-0.3,1.5-0.6,2.7-0.9,3.5c-0.1,0.4-0.2,0.8-0.3,1c-0.1,0.2-0.1,0.3-0.1,0.3
			c-0.2,0.5-0.7,0.8-1.3,0.6S884.8,377.8,885,377.2C885,377.2,885,377.2,885,377.2L885,377.2z"/>
		<path class="st9" d="M1011.6,171.7l11.3,2.5c0.3,0.1,0.5,0.3,0.4,0.6c-0.1,0.3-0.3,0.4-0.6,0.4l-11.4-1.5
			c-0.5-0.1-0.9-0.6-0.9-1.1C1010.4,172,1011,171.6,1011.6,171.7C1011.5,171.7,1011.6,171.7,1011.6,171.7z"/>
		<g>
			<path class="st28" d="M956.1,177.7c-4.7,0-8.4-1.8-8.6-1.9l-0.3-0.2l0.1-0.4c0-0.1,1.4-7.3,10.9-8.9c0,0,0.8-0.2,1.8-0.2
				c2.7,0,4.5,1.2,5.3,3.3c0.2,0.3,1.1,1.9,0.5,3.7c-0.5,1.6-2,2.8-4.5,3.6C959.7,177.4,958,177.7,956.1,177.7z"/>
			<path class="st9" d="M960,166.7c1.6,0,4,0.5,4.8,3c0,0,3,4.4-3.7,6.7c-1.7,0.6-3.4,0.8-5,0.8c-4.6,0-8.3-1.8-8.3-1.8
				s1.2-6.9,10.5-8.5C958.3,166.9,959,166.7,960,166.7 M960,165.7L960,165.7c-1,0-1.8,0.2-1.9,0.2c-9.8,1.6-11.2,9-11.3,9.3
				l-0.1,0.7l0.7,0.3c0.2,0.1,4,1.9,8.8,1.9c1.9,0,3.7-0.3,5.3-0.9c2.6-0.9,4.2-2.2,4.8-3.9c0.6-1.9-0.2-3.6-0.5-4.1
				C964.9,167,962.9,165.7,960,165.7L960,165.7z"/>
		</g>
		
			<ellipse transform="matrix(0.9459 -0.3245 0.3245 0.9459 -3.7986 320.7094)" class="st9" cx="959.6" cy="171.7" rx="4.3" ry="4.9"/>
		
			<ellipse transform="matrix(0.9459 -0.3245 0.3245 0.9459 -3.7986 320.7094)" class="st29" cx="959.6" cy="171.7" rx="1.4" ry="1.6"/>
		<ellipse transform="matrix(0.9459 -0.3245 0.3245 0.9459 -3.872 319.5317)" class="st28" cx="956" cy="171.4" rx="1.4" ry="1.6"/>
		<path class="st9" d="M956.3,369.6c0,0-1.4-1.7-3.4-4.4c-1-1.3-2.1-2.9-3.1-4.7c-1.1-1.7-2.2-3.6-3.2-5.6c-0.5-1-1-2-1.4-2.9
			c-0.4-1-0.8-2-1.2-2.9c-0.3-1-0.7-1.9-1-2.8c-0.2-0.9-0.5-1.8-0.7-2.6c-0.1-0.8-0.3-1.6-0.4-2.2c-0.1-0.7-0.1-1.2-0.2-1.7
			c-0.1-1-0.1-1.5-0.1-1.5c0-0.1,0.1-0.2,0.2-0.2c0.1,0,0.2,0.1,0.2,0.2l0,0c0,0,0.1,0.5,0.2,1.5c0.1,0.5,0.1,1,0.2,1.7
			c0.1,0.6,0.3,1.4,0.5,2.2c0.2,0.8,0.5,1.6,0.8,2.5c0.3,0.9,0.7,1.8,1.1,2.7c0.4,0.9,0.9,1.9,1.4,2.8c0.5,0.9,1,1.9,1.6,2.8
			c1.1,1.9,2.3,3.7,3.4,5.3c1.2,1.7,2.3,3.2,3.3,4.4c2,2.5,3.5,4.1,3.5,4.1c0.4,0.4,0.4,1,0,1.4
			C957.4,370.1,956.7,370.1,956.3,369.6C956.4,369.7,956.3,369.7,956.3,369.6L956.3,369.6z"/>
		<path class="st9" d="M982.8,364.5c0,0,0.2-2.2,0.3-5.5c0-0.8,0-1.7,0-2.7c0-1,0-2-0.1-3c-0.1-2.1-0.2-4.3-0.5-6.5
			c-0.1-1.1-0.3-2.2-0.5-3.3c-0.2-1.1-0.4-2.1-0.6-3.2c-0.2-1-0.5-2-0.8-2.9c-0.3-0.9-0.6-1.8-0.9-2.5c-0.3-0.8-0.7-1.5-0.9-2.1
			c-0.3-0.6-0.6-1.1-0.9-1.5c-0.5-0.8-0.8-1.3-0.8-1.3l0,0c-0.1-0.1,0-0.2,0.1-0.2c0.1,0,0.2,0,0.2,0.1c0,0,0.3,0.5,0.9,1.3
			c0.3,0.4,0.6,0.9,0.9,1.5c0.3,0.6,0.7,1.3,1.1,2.1c0.3,0.8,0.7,1.6,1,2.5c0.3,0.9,0.6,1.9,0.9,2.9c0.3,1,0.6,2.1,0.8,3.2
			c0.2,1.1,0.5,2.2,0.6,3.3c0.4,2.2,0.6,4.5,0.8,6.6c0.1,1.1,0.1,2.1,0.2,3.1c0,1,0.1,1.9,0.1,2.7c0.1,3.4,0,5.7,0,5.7l0,0
			c0,0.6-0.5,1-1,0.9C983.2,365.5,982.8,365.1,982.8,364.5C982.8,364.5,982.8,364.5,982.8,364.5z"/>
		<path class="st9" d="M928,281.5c0,0-0.2,0.7-0.4,1.9c-0.2,1.2-0.5,2.9-0.7,4.9c-0.1,1-0.2,2.1-0.2,3.3c0,1.2,0.1,2.4,0.2,3.6
			c0.2,1.2,0.5,2.5,1.1,3.6l0.2,0.4l0.3,0.4c0.2,0.3,0.3,0.6,0.5,0.9c0.3,0.5,0.7,1.1,1.1,1.6c0.8,1.1,1.7,2.1,2.6,3.1
			c0.9,1,1.7,2.1,2.5,3.2c0.4,0.5,0.7,1.1,1.1,1.6c0.3,0.6,0.6,1.1,0.9,1.6c0.2,0.6,0.5,1.1,0.7,1.6c0.2,0.5,0.4,1,0.6,1.5
			c0.3,1,0.6,1.9,0.7,2.8c0.2,0.8,0.3,1.5,0.4,2.2c0.2,1.2,0.3,1.9,0.3,1.9s-0.2-0.7-0.5-1.8c-0.1-0.6-0.4-1.3-0.7-2.1
			c-0.2-0.8-0.7-1.7-1-2.6c-0.4-0.9-0.9-1.9-1.5-2.9c-0.3-0.5-0.6-1-0.9-1.5c-0.4-0.5-0.7-1-1.1-1.5c-1.5-2-3.5-3.9-5.2-6.2
			c-0.4-0.6-0.8-1.2-1.2-1.8c-0.2-0.3-0.3-0.6-0.5-0.9l-0.2-0.4c-0.1-0.2-0.1-0.3-0.2-0.5c-0.6-1.3-0.8-2.7-1-4
			c-0.1-1.3-0.1-2.6,0-3.8c0.1-1.2,0.3-2.3,0.4-3.4c0.2-1,0.4-2,0.6-2.8c0.2-0.8,0.5-1.5,0.6-2.1C927.8,282.1,928,281.5,928,281.5z"
			/>
		<path class="st13" d="M1002.8,444.6l8.1,12.5c0.4-0.4,0-2.5,0-2.5s2,0.7,2.6,0.4C1010.7,452.4,1002.8,444.6,1002.8,444.6z"/>
		<path class="st13" d="M1035.2,438.7c-4-2-12.4-6.2-12.2-5.9c0.2,0.3,7.3,5.2,11.2,7.8c0.1-0.4-0.7-1.5-0.7-1.5
			S1034.9,439,1035.2,438.7z"/>
		<path class="st9" d="M943.4,173.1c0,0,0-0.4,0-1c0.1-0.6,0.2-1.5,0.6-2.5c0.2-0.5,0.4-1.1,0.8-1.6c0.3-0.5,0.7-1.1,1.1-1.6
			c0.4-0.5,0.9-1.1,1.4-1.5c0.3-0.2,0.6-0.5,0.8-0.7c0.3-0.2,0.6-0.4,0.9-0.6c0.6-0.4,1.3-0.7,1.9-1.1c0.6-0.3,1.2-0.5,1.9-0.8
			c0.6-0.2,1.3-0.4,1.9-0.6c0.6-0.2,1.2-0.2,1.7-0.3c1.1-0.1,2,0.1,2.6,0.4c0.6,0.3,0.8,0.6,0.8,0.6s-0.1-0.1-0.2-0.1
			c-0.2-0.1-0.4-0.1-0.7-0.1c-0.3,0-0.6,0-1,0.1c-0.4,0.1-0.8,0.2-1.3,0.3c-0.5,0.1-1,0.3-1.5,0.6c-0.5,0.2-1.1,0.5-1.6,0.7
			c-0.5,0.3-1.1,0.6-1.7,0.9c-0.5,0.3-1.1,0.6-1.7,1c-0.6,0.3-1.1,0.7-1.6,1.1c-0.5,0.4-1,0.8-1.4,1.2c-0.2,0.2-0.4,0.4-0.6,0.6
			c-0.2,0.2-0.4,0.4-0.6,0.6c-0.4,0.4-0.7,0.9-1,1.3C943.9,171.7,943.4,173.1,943.4,173.1z"/>
		<g>
			<g>
				<path class="st22" d="M768.2,287.1c-0.4,0-0.6,0-0.6,0l-0.1,0l-0.1,0c-26.5-14.4-33-28.4-36-35.2c-0.8-1.8-1.4-3-1.9-3.3
					c-1.8-1-2.3-3.5-2.7-6c-0.4-1.9-0.7-3.9-1.8-4.4c-1.6-0.8-1.4-2.9-1.2-5.3c0.2-2.2,0.4-4.7-0.8-6.5c-2.5-3.7-1.4-8.3-0.5-10.7
					c0.2-0.5,0-1-0.4-1.8c-0.5-1.1-1.2-2.7-0.5-5.2c0-0.1,0-0.1,0.1-0.3c0-0.2,0.1-0.6,0.2-1.6c0.1-0.6,0.5-1.5,1-2.7
					c1.1-2.5,2.6-6.3,2.1-9.8c-0.8-4.9,1.7-8.8,3.7-11.9c0.2-0.3,0.4-0.6,0.6-1c1.9-3,3.5-9.8,3.6-13.9c0.2-4.3,4-8.1,6-8.8
					c1.8-0.6,3.8-1.5,5.7-4c1.1-1.5,0.9-3.4,0.7-5.1c-0.1-0.9-0.2-1.8-0.1-2.6c1.6-8.8,7.2-9.3,11.3-9.6c1.5-0.1,2.9-0.3,3.9-0.7
					c2.7-1.3,4-4.8,5.1-7.5c0.4-1,0.8-2,1.2-2.8c2.4-4.3,4.8-6.2,8.1-6.2c1,0,2.1,0.2,3.1,0.3c1,0.2,2.1,0.3,3.1,0.3
					c0.8,0,1.5-0.1,2.2-0.3c3-0.9,4.2-2.7,5.8-5.1c1.4-2.1,2.9-4.4,6-6.5c2.1-1.4,4.2-2.1,6.4-2.1c1.6,0,3,0.3,4.4,0.7
					c1.4,0.3,2.6,0.6,4,0.6c0.3,0,0.6,0,0.8,0c4.9-0.5,11.3-4.5,11.4-4.5c4.5-2.5,7.5-3.6,9.4-3.6c1.9,0,2.7,1,3.5,2
					c0.9,1.1,1.8,2.3,4.6,2.3c0.3,0,0.7,0,1.1-0.1c4.3-0.4,8-1.3,11.2-2.1c3.6-0.9,6.9-1.7,10.4-1.7c0.6,0,1.2,0,1.7,0.1
					c3.6,0.3,6.6,3.1,9.3,5.5c2.3,2.1,4.4,4,6.3,4c0.5,0,1-0.1,1.5-0.4c2.1-1.2,4.4-1.9,6.9-1.9c3,0,6,1,8.3,2.7
					c1.4,1,2.8,3.2,4.3,5.5c2.3,3.4,4.8,7.3,7.3,7.3c0.3,0,0.5,0,0.8-0.1c2.3-0.8,4.2-1.2,5.9-1.2c4.2,0,5.6,2.6,6.8,4.9
					c0.5,0.9,1,1.8,1.6,2.5c2.8,2.9,5.9,4.2,5.9,4.2c9.7,3.8,10.3,9.6,10.3,9.9l0,0.1l0,0.1c-4.7,16.1-19.7,19.3-19.9,19.3l-0.2,0
					l-0.2-0.1c-22.2-18-48.4-27.5-76-27.5c-20.9,0-41.8,5.4-60.4,15.5c-37.5,20.4-46.1,61.1-46.2,61.5
					c-7.3,53.9,32.9,71.3,33.3,71.4l0.1,0.1l0.1,0.1c0.7,1.1,0.9,1.9,0.6,2.5C769.8,286.7,769.3,287.1,768.2,287.1
					C768.2,287.1,768.2,287.1,768.2,287.1z"/>
				<path class="st23" d="M831.1,100.5c3.7,0,2.5,4.4,8,4.4c0.4,0,0.7,0,1.2-0.1c9-0.8,15-3.7,21.5-3.7c0.6,0,1.1,0,1.7,0.1
					c6.4,0.5,11.2,9.5,15.7,9.5c0.6,0,1.2-0.2,1.8-0.5c2.2-1.3,4.4-1.8,6.6-1.8c3,0,5.9,1,8,2.6c3.4,2.5,7.4,12.9,11.9,12.9
					c0.3,0,0.7-0.1,1-0.2c2.4-0.8,4.2-1.2,5.7-1.2c5.5,0,5.7,4.8,8,7.2c2.9,3,6.1,4.3,6.1,4.3c9.6,3.8,10,9.4,10,9.4
					c-4.6,16-19.5,18.9-19.5,18.9c-24.1-19.6-50.8-27.6-76.3-27.6c-22,0-43,6-60.7,15.6c-38.2,20.8-46.4,61.8-46.4,61.8
					c-7.5,54.9,33.6,72,33.6,72c1.5,2.2,0.1,2.5-0.8,2.5c-0.3,0-0.6,0-0.6,0c-34.2-18.6-34.9-36.8-38-38.5c-3-1.7-1.9-9.1-4.5-10.4
					c-2.6-1.3,0.7-7.9-1.8-11.6c-2.5-3.7-1.1-8.5-0.5-10.2s-1.9-3.1-0.9-7c0.1-0.4,0,0,0.3-1.9c0.3-1.9,3.9-7.4,3-12.7
					c-0.9-5.2,2.3-9.4,4.3-12.5c2-3.1,3.6-10.1,3.7-14.1c0.1-4,3.8-7.7,5.7-8.4c1.9-0.7,4-1.7,5.9-4.2c1.9-2.5,0.3-5.9,0.7-7.9
					c2.1-11.6,11-8.1,14.9-10c3.9-2,5-7.8,6.5-10.5c2.6-4.8,5.1-5.9,7.7-5.9c2,0,4,0.7,6.2,0.7c0.8,0,1.5-0.1,2.3-0.3
					c5.8-1.7,5.5-7.3,11.9-11.6c2.3-1.6,4.3-2,6.1-2c3,0,5.5,1.3,8.3,1.3c0.3,0,0.6,0,0.9,0c5-0.5,11.6-4.6,11.6-4.6
					C826.7,101.4,829.4,100.5,831.1,100.5 M831.1,99.5c-2.1,0-5,1.1-9.6,3.7l0,0l0,0c-0.1,0-6.4,4-11.2,4.4c-0.3,0-0.5,0-0.8,0
					c-1.3,0-2.5-0.3-3.9-0.6c-1.4-0.3-2.9-0.7-4.5-0.7c-2.3,0-4.4,0.7-6.6,2.2c-3.2,2.1-4.8,4.5-6.2,6.6c-1.5,2.3-2.7,4.1-5.5,4.9
					c-0.6,0.2-1.3,0.3-2.1,0.3c-1,0-2-0.2-3-0.3c-1-0.2-2.1-0.3-3.1-0.3c-3.5,0-6.1,2-8.5,6.4c-0.4,0.8-0.8,1.8-1.2,2.9
					c-1,2.7-2.3,6-4.8,7.2c-0.9,0.5-2.3,0.6-3.7,0.7c-4.3,0.4-10.1,0.9-11.7,10c-0.1,0.8,0,1.7,0.1,2.7c0.2,1.7,0.4,3.4-0.6,4.7
					c-1.8,2.3-3.8,3.3-5.4,3.8c-2.4,0.8-6.2,5-6.4,9.3c-0.1,3.9-1.7,10.7-3.6,13.6c-0.2,0.3-0.4,0.6-0.6,0.9c-2,3-4.7,7.2-3.8,12.2
					c0.6,3.4-0.9,6.9-2,9.5c-0.5,1.2-0.9,2.1-1,2.8c-0.1,1-0.2,1.4-0.2,1.6c0,0.1,0,0.1,0,0.1c0,0,0,0.1,0,0.1
					c-0.7,2.7,0,4.3,0.6,5.5c0.3,0.8,0.5,1.1,0.3,1.4c-0.9,2.5-2,7.3,0.6,11.1c1.1,1.6,0.9,4,0.7,6.2c-0.2,2.5-0.4,4.9,1.5,5.8
					c0.8,0.4,1.2,2.3,1.5,4.1c0.5,2.4,1,5.2,3,6.3c0.4,0.2,1,1.6,1.7,3.1c1.5,3.2,3.9,8.5,9.3,14.8c6.4,7.5,15.5,14.4,27,20.6
					l0.1,0.1l0.2,0c0,0,0.3,0.1,0.7,0.1c1.4,0,2-0.6,2.2-1.1c0.6-1.2-0.3-2.5-0.6-3l-0.2-0.2l-0.3-0.1c-0.1,0-10.2-4.4-19.3-15.2
					c-8.3-10-17.5-27.8-13.7-55.7c0.1-0.6,2.3-10.6,8.8-22.9c6.2-11.6,17.6-27.6,37.1-38.2c18.6-10.1,39.4-15.5,60.2-15.5
					c27.4,0,53.6,9.5,75.6,27.4l0.4,0.3l0.5-0.1c0.2,0,15.5-3.2,20.3-19.6l0.1-0.2l0-0.2c0-0.3-0.6-6.3-10.6-10.3c0,0-3-1.3-5.7-4.1
					c-0.6-0.6-1-1.5-1.5-2.4c-1.2-2.3-2.7-5.1-7.2-5.1c-1.7,0-3.7,0.4-6,1.2c-0.2,0.1-0.4,0.1-0.7,0.1c-2.2,0-4.8-3.9-6.9-7.1
					c-1.5-2.3-3-4.5-4.5-5.6c-2.4-1.8-5.5-2.8-8.6-2.8c-2.5,0-5,0.6-7.1,1.9c-0.4,0.2-0.8,0.4-1.3,0.4c-1.7,0-3.8-1.9-6-3.9
					c-2.8-2.5-5.9-5.3-9.6-5.6c-0.6,0-1.2-0.1-1.8-0.1c-3.5,0-6.9,0.8-10.5,1.7c-3.4,0.8-6.9,1.7-11.1,2.1c-0.4,0-0.7,0.1-1.1,0.1
					c-2.6,0-3.3-1-4.2-2.1C834.1,100.8,833.2,99.5,831.1,99.5L831.1,99.5z"/>
			</g>
			<g>
				<path class="st24" d="M928.3,134c0,0-3.2-1.3-6.1-4.3s-2.4-9.9-13.7-6c-4.9,1.7-9.2-10-12.9-12.7c-3.7-2.7-9.6-3.8-14.7-0.8
					c-5.1,3-10.2-8.4-17.5-9c-7.2-0.6-13.4,2.8-23.2,3.7c-9.8,0.9-2.4-9.6-18.3-0.8c0,0-6.6,4.1-11.6,4.6s-8.9-3.6-15.3,0.8
					c-6.5,4.4-6.1,9.9-11.9,11.6c-5.8,1.7-10.7-4.5-16.2,5.5c-1.5,2.7-2.6,8.5-6.5,10.5c-3.9,2-12.9-1.6-14.9,10
					c-0.3,1.9,1.2,5.4-0.7,7.9c-1.9,2.5-4,3.5-5.9,4.2c-1.9,0.7-5.5,4.4-5.7,8.4c-0.1,4-1.7,11-3.7,14.1s-5.2,7.3-4.3,12.5
					c0.9,5.2-2.7,10.7-3,12.7s-0.2,1.6-0.3,1.9c-1,4,1.5,5.3,0.9,7c-0.6,1.7-2,6.3,0.3,10c-0.3-2.7,0.5-5.3,0.9-6.5
					c0.6-1.7-1.9-3.1-0.9-7c0.1-0.4,0,0,0.3-1.9s3.9-7.4,3-12.7c-0.9-5.2,2.3-9.4,4.3-12.5s3.6-10.1,3.7-14.1c0.1-4,3.8-7.7,5.7-8.4
					c1.9-0.7,4-1.7,5.9-4.2c1.9-2.5,0.3-5.9,0.7-7.9c2.1-11.6,11-8.1,14.9-10s5-7.8,6.5-10.5c5.5-10,10.3-3.8,16.2-5.5
					c5.8-1.7,5.5-7.3,11.9-11.6c6.5-4.4,10.3-0.3,15.3-0.8s11.6-4.6,11.6-4.6c15.9-8.8,8.5,1.7,18.3,0.8s16-4.3,23.2-3.7
					c7.2,0.6,12.4,12,17.5,9c5.1-3,11-1.9,14.7,0.8c3.7,2.7,8,14.4,12.9,12.7c11.3-3.9,10.8,3,13.7,6s14.1,12.4,14.1,12.4l0.8-2.1
					C937.3,137.7,929.3,134.4,928.3,134z"/>
			</g>
			<path class="st25" d="M809.8,125.3c-13.3,3.4-50.1,14.3-74.9,58.9c-5.3,9.5-19.4,51.2,14.2,86.8c0,0,6.8,6.4,11.4,8
				c-11.6-8.4-30.4-28.3-25.1-67c0,0,8.2-41.1,46.4-61.8c38.2-20.7,92-24.3,137,12.3c0,0,7.6-2.1,12.9-7.7
				C922.6,147.3,872.9,109.1,809.8,125.3z"/>
		</g>
		<g>
			<path class="st14" d="M922,164.8c-9-6.8-25.8-3.5-33.6-0.9c-7,2.3-13.9,0-13.9,0s3.9,28.1,38.7,21.4c0,0,7.6-1.8,12.4-4.8
				L922,164.8z"/>
			<path class="st30" d="M913.2,185.3c0,0,7.6-1.8,12.4-4.8l-1.9-7.6c-7-2.7-22-2.5-32-1.6c-9.2,0.8-15.1-4.9-16.7-6.7
				c-0.3-0.4-0.5-0.6-0.5-0.6S878.4,192,913.2,185.3z"/>
			<path class="st9" d="M874.5,163.9c0,0,0.5,0.6,1.6,1.6c1,0.9,2.6,2.2,4.8,3.3c1.1,0.6,2.3,1,3.6,1.4c1.3,0.3,2.7,0.6,4.2,0.7
				c0.4,0,0.7,0,1.1,0.1c0.4,0,0.8,0,1.1-0.1c0.8,0,1.5-0.1,2.3-0.2c1.6-0.1,3.2-0.3,4.8-0.4c3.2-0.2,6.5-0.3,9.5-0.3
				c1.5,0,3,0.1,4.4,0.2c0.7,0.1,1.4,0.1,2,0.2c0.7,0.1,1.3,0.2,1.9,0.2c0.6,0.1,1.2,0.2,1.7,0.3c0.5,0.1,1.1,0.3,1.5,0.4
				c0.5,0.1,0.9,0.3,1.3,0.4c0.4,0.1,0.8,0.3,1.1,0.4c0.3,0.1,0.6,0.3,0.9,0.4c0.2,0.1,0.4,0.3,0.6,0.4c0.3,0.2,0.5,0.3,0.5,0.3
				s-0.2-0.1-0.5-0.3c-0.2-0.1-0.4-0.2-0.6-0.3c-0.3-0.1-0.6-0.2-0.9-0.3c-0.3-0.1-0.7-0.2-1.1-0.3c-0.4-0.1-0.8-0.2-1.3-0.3
				c-1-0.2-2.1-0.3-3.2-0.5c-0.6-0.1-1.2-0.1-1.9-0.2c-0.6,0-1.3-0.1-2-0.1c-1.4,0-2.8,0-4.3,0c-3,0-6.2,0.2-9.5,0.4
				c-1.6,0.1-3.2,0.2-4.8,0.3c-0.8,0.1-1.6,0.1-2.4,0.1c-0.4,0-0.8,0-1.2,0c-0.4,0-0.8,0-1.2-0.1c-1.5-0.1-3-0.4-4.4-0.8
				c-1.3-0.5-2.6-1-3.6-1.6c-1.1-0.6-2-1.3-2.8-1.9c-0.8-0.6-1.4-1.2-1.9-1.7c-0.5-0.5-0.8-0.9-1.1-1.2
				C874.6,164.1,874.5,163.9,874.5,163.9z"/>
			<path class="st9" d="M925.2,166.8c-0.9-0.6-1.8-1.2-2.8-1.7c-0.9-0.6-1.9-1-2.9-1.5l-1.5-0.6l-1.5-0.5c-0.5-0.2-1-0.3-1.6-0.5
				c-0.5-0.2-1.1-0.3-1.6-0.4c-1.1-0.2-2.1-0.4-3.2-0.5l-1.6-0.1c-0.5,0-1.1,0-1.6,0c-0.5,0-1.1,0-1.6,0.1c-0.5,0-1.1,0.1-1.6,0.1
				c-1.1,0.1-2.1,0.3-3.2,0.5l-1.6,0.4l-1.5,0.5c-0.5,0.2-1,0.4-1.5,0.6l-1.5,0.6c-1,0.4-2.1,0.8-3.2,1.1l-1.7,0.4l-1.7,0.3
				c-1.1,0.2-2.2,0.3-3.4,0.3c-1.1,0.1-2.3,0-3.4,0c-1.1-0.1-2.3-0.2-3.4-0.3c-1.1-0.2-2.2-0.4-3.4-0.7l1.3-1.1
				c0.2,1.2,0.6,2.4,1,3.6c0.4,1.2,0.9,2.4,1.5,3.5c0.6,1.1,1.2,2.2,1.9,3.3c0.7,1,1.5,2.1,2.4,3c0.8,0.9,1.8,1.8,2.8,2.6
				c1,0.8,2,1.5,3.2,2.1c0.6,0.3,1.1,0.6,1.7,0.9c0.6,0.3,1.2,0.5,1.8,0.7c1.2,0.5,2.4,0.8,3.7,1.1c0.6,0.1,1.2,0.3,1.9,0.4l1.9,0.3
				c1.3,0.1,2.6,0.3,3.9,0.2c1.3,0.1,2.6,0,3.9-0.1c1.3-0.1,2.6-0.2,3.9-0.4l1.9-0.3l0.5-0.1l0.5-0.1l1-0.2c1.3-0.3,2.5-0.7,3.8-1
				c1.3-0.4,2.5-0.8,3.7-1.3c1.2-0.5,2.4-1,3.6-1.7c-2.2,1.5-4.6,2.6-7.1,3.5c-1.2,0.5-2.5,0.9-3.8,1.3l-1,0.3l-0.5,0.1l-0.5,0.1
				l-2,0.4c-1.3,0.3-2.6,0.4-3.9,0.6c-1.3,0.1-2.7,0.2-4,0.2c-1.3,0-2.7-0.1-4-0.1l-2-0.2c-0.7-0.1-1.3-0.2-2-0.4
				c-1.3-0.3-2.6-0.6-3.9-1.1c-0.6-0.2-1.3-0.5-1.9-0.8c-0.6-0.3-1.2-0.6-1.8-0.9c-1.2-0.6-2.3-1.4-3.4-2.2c-1.1-0.8-2.1-1.8-3-2.8
				c-1-1-1.8-2.1-2.6-3.2c-0.8-1.1-1.5-2.3-2.1-3.5c-0.6-1.2-1.1-2.5-1.6-3.8c-0.4-1.3-0.8-2.6-1-4l-0.2-1.5l1.5,0.4
				c1,0.3,2,0.5,3.1,0.6c1.1,0.2,2.1,0.3,3.2,0.4c1.1,0.1,2.1,0.1,3.2,0.1c1.1,0,2.1-0.1,3.2-0.2l1.6-0.2l1.6-0.3c1-0.3,2-0.5,3-1
				l1.5-0.6c0.5-0.2,1-0.4,1.6-0.6l1.6-0.5l1.7-0.4c1.1-0.2,2.2-0.4,3.4-0.4c0.6-0.1,1.1-0.1,1.7-0.1c0.6,0,1.1,0,1.7,0
				c0.6,0,1.1,0.1,1.7,0.1l1.7,0.2c1.1,0.2,2.2,0.4,3.3,0.7c0.5,0.1,1.1,0.3,1.6,0.5c0.5,0.2,1.1,0.3,1.6,0.6l1.5,0.6l1.5,0.7
				c0.5,0.2,1,0.5,1.5,0.8c0.5,0.3,1,0.6,1.4,0.9C923.5,165.4,924.3,166.1,925.2,166.8z"/>
		</g>
		<g>
			<path class="st9" d="M996.1,194.9l-0.4-0.3c4.2-5.1,2.1-7.4,2.1-7.4l0.4-0.3C998.3,186.9,1000.6,189.5,996.1,194.9z"/>
		</g>
		<path class="st31" d="M1430.6,808l-357.4-301.6l-29.1-33.4l-9.7-48.5L906.8,479L825,513.7c0,1.4-203.1,155.8-379.5,294.3H1430.6z"
			/>
		<g>
			<path class="st1" d="M1259.1,682.8c-0.1,0.5-0.2,1-0.2,1.4c0,4.8,5.6,8.7,12.5,8.8l0,0.1l99.9-0.1c9.8,0.5,18.5-3.7,22.4-10.2
				H1259.1z"/>
			<linearGradient id="SVGID_5_" gradientUnits="userSpaceOnUse" x1="1326.3923" y1="693.0082" x2="1326.3923" y2="636.6085">
				<stop  offset="0.4032" style="stop-color:#FBF8E6"/>
				<stop  offset="1" style="stop-color:#EFECDF"/>
			</linearGradient>
			<path class="st32" d="M1373.2,656.8c-3.6-0.2-7,0.2-10.1,1.2c-3.7-12.2-18.2-21.4-35.6-21.4c-19.1,0-34.7,11-36.4,25.1
				c-10.2,0.3-18.5,6.2-19.5,13.8c-0.3,0-0.7,0-1,0c-7.5,0-13.6,3.9-13.6,8.8c0,4.8,6.1,8.8,13.6,8.8c4.1,0,7.8-1.2,10.3-3
				c3.2,1.5,7,2.4,11,2.4c6.1,0,11.6-2,15.3-5.2c5.8,2.9,12.8,4.6,20.3,4.6c9.5,0,18.2-2.8,24.7-7.3c4,5,10.9,8,18.9,8.4
				c13,0.7,24.1-6.3,24.6-16.4S1386.2,657.5,1373.2,656.8z"/>
		</g>
		<path class="st33" d="M779.4,808c35.9-87.3,74.1-179.7,100.9-253.1c11.8-32.3,19-57.9,25.7-75.4l-0.3-0.1L825,513.7
			c0,1.4-203.1,155.8-379.5,294.3H779.4z"/>
		<path class="st34" d="M953.2,554.8l41.4,108.9l46.4-116.6l151,59.5l-118.7-100.2l-29.1-33.4l-9.7-48.5L906.8,479L825,513.7
			c0,0.6-47.1,32.4-110.9,85.9l166.6-45.4l-25.5,69.9L953.2,554.8z"/>
		<g>
			<path class="st1" d="M674.9,704.8c0.2,0.8,0.3,1.7,0.3,2.6c0,8.6-10,15.7-22.4,15.8l0,0.1L473,723.1
				c-17.7,0.9-33.3-6.7-40.3-18.3H674.9z"/>
			
				<linearGradient id="SVGID_6_" gradientUnits="userSpaceOnUse" x1="1588.1929" y1="723.2206" x2="1588.1929" y2="621.6176" gradientTransform="matrix(-1 0 0 1 2141.9453 0)">
				<stop  offset="0.4032" style="stop-color:#FBF8E6"/>
				<stop  offset="1" style="stop-color:#EFECDF"/>
			</linearGradient>
			<path class="st35" d="M469.4,658c6.5-0.4,12.6,0.4,18.2,2.1c6.7-22.1,32.9-38.5,64.1-38.5c34.3,0,62.5,19.9,65.5,45.2
				c18.4,0.5,33.3,11.2,35.1,24.9c0.6,0,1.2-0.1,1.8-0.1c13.5,0,24.5,7.1,24.5,15.8c0,8.7-11,15.8-24.5,15.8c-7.4,0-14-2.1-18.5-5.5
				c-5.7,2.8-12.5,4.4-19.8,4.4c-11,0-20.9-3.7-27.6-9.4c-10.4,5.3-23,8.3-36.5,8.3c-17.1,0-32.8-5-44.5-13.1
				c-7.2,9-19.6,14.3-34.1,15.1c-23.5,1.3-43.4-11.3-44.4-29.6C427.8,675.2,446,659.3,469.4,658z"/>
		</g>
		<g>
			<g>
				<polygon class="st36" points="580.7,808 490.4,672.5 479.8,685.7 370.1,808 				"/>
				<polygon class="st37" points="580.7,808 490.5,672.8 446,808 				"/>
			</g>
		</g>
		<g>
			<g>
				<polygon class="st37" points="1499.9,808 1412.1,720.2 1343.3,808 				"/>
				<polygon class="st36" points="1392.8,808 1412.1,720.2 1407.1,727.4 1343.7,808 				"/>
			</g>
			<polygon class="st36" points="1436.6,808 1440.2,808 1439.4,798.8 1410.7,726.8 1409.7,732.5 1435,799.2 			"/>
		</g>
		<path class="st9" d="M923.6,176.9c-1.9,0.7-3.5,1.3-4,1.4c-6.5,1.6-11.8,1.2-15.9-1.2c0.6,0,1.2-0.1,1.9-0.1
			c10.4-1.4,15.9-1.1,18.8-0.5C924.2,176.6,923.9,176.8,923.6,176.9L923.6,176.9z"/>
	</g>
	<g>
		<path class="st1" d="M1122.5,476.7c4-0.2,7.9,0.3,11.4,1.4c4.4-13.2,20.2-23,39.1-23c21,0,38.3,12.2,40.1,27.7
			c11.2,0.3,20.4,6.9,21.5,15.2c0,0,0,0,0,0c7.7,0,13.9,4.3,13.9,9.7c0,5.3-6.1,9.6-13.7,9.7l0,0.1l-110.1-0.1
			c-14.3,0.8-26.4-7.6-27-18.8C1097,487.3,1108.1,477.5,1122.5,476.7z"/>
		<linearGradient id="SVGID_7_" gradientUnits="userSpaceOnUse" x1="1174.1301" y1="518.0143" x2="1174.1301" y2="455.1542">
			<stop  offset="0.4032" style="stop-color:#FBF8E6"/>
			<stop  offset="1" style="stop-color:#EFECDF"/>
		</linearGradient>
		<path class="st38" d="M1235.6,498c-0.4,0-0.7,0-1.1,0c-1.1-8.3-10.2-14.9-21.5-15.2c-1.8-15.5-19.1-27.7-40.1-27.7
			c-19.1,0-35.1,10.1-39.2,23.6c-3.4-1-7.2-1.5-11.2-1.3c-14.4,0.8-25.5,10.6-24.9,21.7c0.6,11.2,12.8,19.6,27.2,18.8
			c8.9-0.5,16.5-4.4,20.9-9.9c7.2,5,16.7,8,27.2,8c8.3,0,15.9-1.9,22.3-5.1c4.1,3.5,10.2,5.8,16.9,5.8c4.5,0,8.6-1,12.1-2.7
			c2.8,2,6.8,3.3,11.3,3.3c8.3,0,15-4.3,15-9.7C1250.6,502.3,1243.9,498,1235.6,498z"/>
	</g>
	<path class="st1" d="M879.9,554.4c4.5-12.4,19.5-54.4,25.7-74.9L825,513.7c0,0.6-47.1,32.4-110.9,85.9L879.9,554.4z"/>
</g>
</svg>
