<?xml version="1.0" encoding="UTF-8" standalone="no"?>
<!-- Generator: Adobe Illustrator 18.0.0, SVG Export Plug-In . SVG Version: 6.00 Build 0)  -->

<svg
   xmlns:dc="http://purl.org/dc/elements/1.1/"
   xmlns:cc="http://creativecommons.org/ns#"
   xmlns:rdf="http://www.w3.org/1999/02/22-rdf-syntax-ns#"
   xmlns:svg="http://www.w3.org/2000/svg"
   xmlns="http://www.w3.org/2000/svg"
   xmlns:sodipodi="http://sodipodi.sourceforge.net/DTD/sodipodi-0.dtd"
   xmlns:inkscape="http://www.inkscape.org/namespaces/inkscape"
   version="1.1"
   id="Layer_1"
   x="0px"
   y="0px"
   viewBox="0 0 415.1 195.4"
   enable-background="new 0 0 800 600"
   xml:space="preserve"
   inkscape:version="0.48.4 r9939"
   width="100%"
   height="100%"
   sodipodi:docname="logo.svg"><metadata
     id="metadata91"><rdf:RDF><cc:Work
         rdf:about=""><dc:format>image/svg+xml</dc:format><dc:type
           rdf:resource="http://purl.org/dc/dcmitype/StillImage" /></cc:Work></rdf:RDF></metadata><defs
     id="defs89" /><sodipodi:namedview
     pagecolor="#ffffff"
     bordercolor="#666666"
     borderopacity="1"
     objecttolerance="10"
     gridtolerance="10"
     guidetolerance="10"
     inkscape:pageopacity="0"
     inkscape:pageshadow="2"
     inkscape:window-width="640"
     inkscape:window-height="480"
     id="namedview87"
     showgrid="false"
     fit-margin-top="0"
     fit-margin-left="0"
     fit-margin-right="0"
     fit-margin-bottom="0"
     inkscape:zoom="0.39333333"
     inkscape:cx="196.5"
     inkscape:cy="92.1"
     inkscape:window-x="0"
     inkscape:window-y="20"
     inkscape:window-maximized="0"
     inkscape:current-layer="Layer_1" /><g
     id="g3"
     transform="translate(-203.5,-196.7)"><g
       id="g5"><g
         id="g7"><path
           d="m 604.5,211.9 v -10.1 h 4.5 c 0.9,0 1.6,0.1 2,0.3 0.5,0.2 0.8,0.5 1.1,1 0.3,0.5 0.4,1 0.4,1.5 0,0.7 -0.2,1.3 -0.7,1.8 -0.5,0.5 -1.2,0.8 -2.1,0.9 0.4,0.2 0.6,0.3 0.8,0.5 0.4,0.4 0.8,0.8 1.1,1.3 l 1.8,2.7 h -1.7 l -1.3,-2.1 c -0.4,-0.6 -0.7,-1.1 -1,-1.4 -0.3,-0.3 -0.5,-0.5 -0.7,-0.7 -0.2,-0.1 -0.4,-0.2 -0.6,-0.3 -0.2,0 -0.4,0 -0.7,0 h -1.5 v 4.5 h -1.4 z m 1.3,-5.6 h 2.9 c 0.6,0 1.1,-0.1 1.4,-0.2 0.3,-0.1 0.6,-0.3 0.8,-0.6 0.2,-0.3 0.3,-0.6 0.3,-0.9 0,-0.5 -0.2,-0.9 -0.5,-1.2 -0.3,-0.3 -0.9,-0.5 -1.6,-0.5 h -3.2 v 3.4 z"
           id="path9"
           inkscape:connector-curvature="0" /></g><g
         id="g11"><path
           d="m 608.2,217.5 c -5.7,0 -10.4,-4.7 -10.4,-10.4 0,-5.7 4.7,-10.4 10.4,-10.4 5.7,0 10.4,4.7 10.4,10.4 0,5.7 -4.7,10.4 -10.4,10.4 z m 0,-19.5 c -5,0 -9.1,4.1 -9.1,9.1 0,5 4.1,9.1 9.1,9.1 5,0 9.1,-4.1 9.1,-9.1 0,-5 -4.1,-9.1 -9.1,-9.1 z"
           id="path13"
           inkscape:connector-curvature="0" /></g></g><g
       id="g15"><g
         id="g17"><g
           id="g19"><rect
             x="203.5"
             y="208"
             width="122.3"
             height="122.3"
             id="rect21" /><rect
             x="215.3"
             y="219.8"
             width="98.599998"
             height="98.599998"
             id="rect23"
             style="fill:#ffffff" /><rect
             x="254.10001"
             y="258.20001"
             width="94.099998"
             height="94.099998"
             id="rect25" /><rect
             x="265.29999"
             y="269.5"
             width="71.5"
             height="71.5"
             id="rect27"
             style="fill:#f15a22" /></g><g
           id="g29"><path
             d="m 453.5,324.2 c -0.9,2.3 -2.3,4.3 -4,6.2 -1.8,1.8 -3.9,3.4 -6.2,4.7 -2.3,1.3 -4.9,2.3 -7.5,3.1 -2.7,0.8 -5.4,1.1 -8.2,1.1 -3.9,0 -7.7,-0.8 -11.2,-2.3 -3.5,-1.5 -6.7,-3.6 -9.5,-6.3 -2.8,-2.7 -5.1,-5.9 -6.8,-9.6 -1.6,-3.4 -2.6,-7.2 -3.1,-11.4 h 77.7 l 0.2,-0.8 c 0.1,-0.7 0.2,-1.5 0.3,-2.7 0.1,-1.1 0.1,-2.3 0.1,-3.7 0,-6.3 -1.1,-12.5 -3.4,-18.4 -2.3,-5.9 -5.5,-11.2 -9.7,-15.6 -4.2,-4.5 -9.3,-8.1 -15.2,-10.8 -5.9,-2.7 -12.6,-4 -19.8,-4 -7.2,0 -13.9,1.3 -19.8,4 -6,2.6 -11.2,6.2 -15.5,10.8 -4.3,4.5 -7.7,9.8 -10.1,15.8 -2.4,6 -3.6,12.4 -3.6,19.1 0,6.7 1.2,13.1 3.6,19.2 2.4,6 5.7,11.4 10,15.9 4.3,4.5 9.5,8.1 15.4,10.8 6,2.6 12.7,4 19.8,4 4.7,0 9.4,-0.6 13.8,-1.8 4.4,-1.2 8.4,-2.9 12,-5.1 3.6,-2.1 6.8,-4.7 9.6,-7.6 2.8,-2.9 5,-6.2 6.6,-9.8 l 0.5,-1.1 -15.7,-4.3 -0.3,0.6 z m -26.2,-56.6 c 4,0 7.9,0.7 11.5,2.2 3.6,1.4 6.8,3.5 9.5,6 2.7,2.5 5,5.7 6.8,9.3 1.6,3.3 2.7,7 3.1,10.9 h -61.5 c 0.4,-3.9 1.4,-7.5 3,-10.8 1.7,-3.6 3.9,-6.7 6.6,-9.3 2.7,-2.6 5.9,-4.6 9.5,-6.1 3.5,-1.4 7.4,-2.2 11.5,-2.2 z"
             id="path31"
             inkscape:connector-curvature="0" /><polygon
             points="563.1,238.3 471.3,352.2 586.7,352.2 586.7,335.2 506.9,335.2 598.6,221.3 484.6,221.3 484.6,238.3 "
             id="polygon33" /></g></g><g
         id="g35"><path
           d="m 203.5,373.5 h 2 l 4.9,15.5 4.9,-15.5 h 2 l 4.8,15.2 4.8,-15.2 h 2 l -5.9,18.3 h -2 l -4.8,-15.1 -4.8,15.1 h -1.9 l -6,-18.3 z"
           id="path37"
           inkscape:connector-curvature="0" /><path
           d="m 231.8,391.8 v -18.9 h 2 v 5.8 c 1.4,-0.6 2.8,-0.9 4.1,-0.9 1.7,0 3,0.5 3.9,1.5 0.9,1 1.4,2.4 1.4,4.3 v 8.1 h -2 v -8.1 c 0,-2.6 -1.2,-3.8 -3.5,-3.8 -1.3,0 -2.6,0.3 -3.9,0.8 v 11.1 h -2 z"
           id="path39"
           inkscape:connector-curvature="0" /><path
           d="m 246.4,385.1 c 0,0 0,0 0,0 0,-0.1 0,-0.2 0,-0.2 0,-4.7 2,-7.1 6,-7.1 0.8,0 1.6,0.1 2.3,0.4 0.7,0.3 1.2,0.6 1.6,0.9 0.4,0.4 0.8,0.8 1.1,1.4 0.3,0.6 0.5,1.1 0.6,1.5 0.1,0.4 0.2,0.9 0.3,1.5 0.1,0.6 0.1,0.9 0.1,1 v 0.6 l -0.1,1 h -10 c 0.1,1.4 0.5,2.4 1.3,3 0.7,0.6 1.8,0.9 3.2,0.9 2,0 3.5,-0.3 4.7,-1 v 2 c -1.3,0.6 -2.9,1 -4.8,1 0,0 -0.1,0 -0.1,0 -0.8,0 -1.5,-0.1 -2.2,-0.3 -0.7,-0.2 -1.3,-0.5 -2,-1 -0.6,-0.5 -1.2,-1.2 -1.5,-2.1 -0.3,-1 -0.5,-2.1 -0.5,-3.5 z m 2,-0.7 h 8 c 0,-0.3 0,-0.7 -0.1,-1 -0.1,-0.4 -0.2,-0.9 -0.5,-1.5 -0.2,-0.6 -0.6,-1.1 -1.2,-1.5 -0.6,-0.4 -1.3,-0.6 -2.2,-0.6 -1.4,0 -2.3,0.4 -3,1.1 -0.6,0.6 -0.9,1.8 -1,3.5 z"
           id="path41"
           inkscape:connector-curvature="0" /><path
           d="m 261.7,391.8 v -12.6 c 2.1,-0.9 4.3,-1.3 6.6,-1.3 v 1.9 c -1.5,0 -3.1,0.3 -4.7,0.7 v 11.3 h -1.9 z"
           id="path43"
           inkscape:connector-curvature="0" /><path
           d="m 270.3,385.1 c 0,0 0,0 0,0 0,-0.1 0,-0.2 0,-0.2 0,-4.7 2,-7.1 6,-7.1 0.8,0 1.6,0.1 2.3,0.4 0.7,0.3 1.2,0.6 1.6,0.9 0.4,0.4 0.8,0.8 1.1,1.4 0.3,0.6 0.5,1.1 0.6,1.5 0.1,0.4 0.2,0.9 0.3,1.5 0.1,0.6 0.1,0.9 0.1,1 v 0.6 l -0.1,1 h -10 c 0.1,1.4 0.5,2.4 1.3,3 0.7,0.6 1.8,0.9 3.2,0.9 2,0 3.5,-0.3 4.7,-1 v 2 c -1.3,0.6 -2.9,1 -4.8,1 0,0 -0.1,0 -0.1,0 -0.8,0 -1.5,-0.1 -2.2,-0.3 -0.7,-0.2 -1.3,-0.5 -2,-1 -0.6,-0.5 -1.2,-1.2 -1.5,-2.1 -0.3,-1 -0.5,-2.1 -0.5,-3.5 z m 2,-0.7 h 8 c 0,-0.3 0,-0.7 -0.1,-1 -0.1,-0.4 -0.2,-0.9 -0.5,-1.5 -0.2,-0.6 -0.6,-1.1 -1.2,-1.5 -0.6,-0.4 -1.3,-0.6 -2.2,-0.6 -1.4,0 -2.3,0.4 -3,1.1 -0.6,0.6 -0.9,1.8 -1,3.5 z"
           id="path45"
           inkscape:connector-curvature="0" /><path
           d="m 294.7,382.6 c 0,-6.3 2.8,-9.4 8.5,-9.4 2,0 3.8,0.4 5.6,1.1 v 1.9 c -1.7,-0.7 -3.5,-1.1 -5.4,-1.1 -2.3,0 -4,0.6 -5.1,1.8 -1.1,1.2 -1.6,3.1 -1.6,5.7 0,2.6 0.5,4.5 1.6,5.7 1.1,1.2 2.8,1.8 5.1,1.8 1.9,0 3.7,-0.4 5.4,-1.1 v 1.9 c -1.8,0.7 -3.6,1 -5.5,1 0,0 0,0 -0.1,0 -5.6,0.1 -8.5,-3 -8.5,-9.3 z"
           id="path47"
           inkscape:connector-curvature="0" /><path
           d="m 311.9,388.5 c -0.4,-1 -0.6,-2.2 -0.6,-3.6 0,-1.4 0.2,-2.6 0.6,-3.6 0.4,-1 0.9,-1.7 1.6,-2.2 0.7,-0.5 1.3,-0.8 2,-1 0.7,-0.2 1.4,-0.3 2.3,-0.3 0.8,0 1.6,0.1 2.3,0.3 0.7,0.2 1.4,0.5 2,1 0.7,0.5 1.2,1.2 1.6,2.2 0.4,1 0.6,2.2 0.6,3.6 0,1.4 -0.2,2.6 -0.6,3.6 -0.4,1 -0.9,1.7 -1.6,2.2 -0.7,0.5 -1.3,0.8 -2,1 -0.7,0.2 -1.5,0.3 -2.3,0.3 -0.8,0 -1.6,-0.1 -2.3,-0.3 -0.7,-0.2 -1.4,-0.5 -2,-1 -0.7,-0.5 -1.2,-1.2 -1.6,-2.2 z m 2.5,-7.6 c -0.7,0.8 -1.1,2.2 -1.1,4 0,1.8 0.4,3.2 1.1,4 0.7,0.8 1.8,1.3 3.4,1.3 1.6,0 2.7,-0.4 3.4,-1.2 0.7,-0.8 1.1,-2.2 1.1,-4 0,-1.8 -0.4,-3.2 -1.1,-4 -0.7,-0.8 -1.8,-1.2 -3.4,-1.2 -1.6,-0.1 -2.7,0.3 -3.4,1.1 z"
           id="path49"
           inkscape:connector-curvature="0" /><path
           d="m 327.3,391.8 v -12.6 c 1.8,-0.9 3.7,-1.3 5.8,-1.3 1.7,0 3.1,0.4 4,1.3 0.9,0.9 1.4,2.1 1.4,3.7 v 8.9 h -2 v -8.9 c 0,-0.4 0,-0.7 -0.1,-1 -0.1,-0.3 -0.2,-0.6 -0.5,-1 -0.2,-0.3 -0.6,-0.6 -1.1,-0.8 -0.5,-0.2 -1.2,-0.3 -2,-0.3 -1.2,0 -2.4,0.2 -3.6,0.6 v 11.4 h -1.9 z"
           id="path51"
           inkscape:connector-curvature="0" /><path
           d="m 341,379.9 v -1.8 h 2.4 v -3.9 h 2 v 3.9 h 3.5 v 1.8 h -3.5 v 8.3 c 0,0.7 0.1,1.2 0.4,1.5 0.3,0.3 0.8,0.4 1.5,0.4 0.6,0 1.1,-0.1 1.6,-0.3 v 1.9 c -0.6,0.2 -1.2,0.3 -1.7,0.3 0,0 0,0 -0.1,0 -0.4,0 -0.7,0 -1.1,-0.1 -0.3,-0.1 -0.7,-0.2 -1.2,-0.5 -0.4,-0.2 -0.8,-0.6 -1.1,-1.2 -0.3,-0.6 -0.4,-1.2 -0.4,-2.1 v -8.2 H 341 z"
           id="path53"
           inkscape:connector-curvature="0" /><path
           d="m 351.2,385.1 c 0,0 0,0 0,0 0,-0.1 0,-0.2 0,-0.2 0,-4.7 2,-7.1 6,-7.1 0.8,0 1.6,0.1 2.3,0.4 0.7,0.3 1.2,0.6 1.6,0.9 0.4,0.4 0.8,0.8 1.1,1.4 0.3,0.6 0.5,1.1 0.6,1.5 0.1,0.4 0.2,0.9 0.3,1.5 0.1,0.6 0.1,0.9 0.1,1 v 0.6 l -0.1,1 h -10 c 0.1,1.4 0.5,2.4 1.3,3 0.7,0.6 1.8,0.9 3.2,0.9 2,0 3.5,-0.3 4.7,-1 v 2 c -1.3,0.6 -2.9,1 -4.8,1 0,0 -0.1,0 -0.1,0 -0.8,0 -1.5,-0.1 -2.2,-0.3 -0.7,-0.2 -1.3,-0.5 -2,-1 -0.6,-0.5 -1.2,-1.2 -1.5,-2.1 -0.3,-1 -0.5,-2.1 -0.5,-3.5 z m 2,-0.7 h 8 c 0,-0.3 0,-0.7 -0.1,-1 -0.1,-0.4 -0.2,-0.9 -0.5,-1.5 -0.2,-0.6 -0.6,-1.1 -1.2,-1.5 -0.6,-0.4 -1.3,-0.6 -2.2,-0.6 -1.4,0 -2.3,0.4 -3,1.1 -0.6,0.6 -0.9,1.8 -1,3.5 z"
           id="path55"
           inkscape:connector-curvature="0" /><path
           d="m 366.6,391.8 v -12.6 c 1.8,-0.9 3.7,-1.3 5.8,-1.3 1.7,0 3.1,0.4 4,1.3 0.9,0.9 1.4,2.1 1.4,3.7 v 8.9 h -2 v -8.9 c 0,-0.4 0,-0.7 -0.1,-1 -0.1,-0.3 -0.2,-0.6 -0.5,-1 -0.2,-0.3 -0.6,-0.6 -1.1,-0.8 -0.5,-0.2 -1.2,-0.3 -2,-0.3 -1.2,0 -2.3,0.2 -3.6,0.6 v 11.4 h -1.9 z"
           id="path57"
           inkscape:connector-curvature="0" /><path
           d="m 380.3,379.9 v -1.8 h 2.4 v -3.9 h 2 v 3.9 h 3.5 v 1.8 h -3.5 v 8.3 c 0,0.7 0.1,1.2 0.4,1.5 0.3,0.3 0.8,0.4 1.5,0.4 0.6,0 1.1,-0.1 1.6,-0.3 v 1.9 c -0.6,0.2 -1.2,0.3 -1.7,0.3 0,0 0,0 -0.1,0 -0.4,0 -0.7,0 -1.1,-0.1 -0.3,-0.1 -0.7,-0.2 -1.2,-0.5 -0.4,-0.2 -0.8,-0.6 -1.1,-1.2 -0.3,-0.6 -0.4,-1.2 -0.4,-2.1 v -8.2 h -2.3 z"
           id="path59"
           inkscape:connector-curvature="0" /><path
           d="m 400.8,391.8 v -18.3 h 2.1 l 6.3,9.3 6.3,-9.3 h 2.1 v 18.3 h -2 v -15.1 l -6.5,9.3 -6.4,-9.3 v 15.1 h -1.9 z"
           id="path61"
           inkscape:connector-curvature="0" /><path
           d="m 421.4,385.1 c 0,0 0,0 0,0 0,-0.1 0,-0.2 0,-0.2 0,-4.7 2,-7.1 6,-7.1 0.8,0 1.6,0.1 2.3,0.4 0.7,0.3 1.2,0.6 1.6,0.9 0.4,0.4 0.8,0.8 1.1,1.4 0.3,0.6 0.5,1.1 0.6,1.5 0.1,0.4 0.2,0.9 0.3,1.5 0.1,0.6 0.1,0.9 0.1,1 v 0.6 l -0.1,1 h -10 c 0.1,1.4 0.5,2.4 1.3,3 0.7,0.6 1.8,0.9 3.2,0.9 2,0 3.5,-0.3 4.7,-1 v 2 c -1.3,0.6 -2.9,1 -4.8,1 0,0 -0.1,0 -0.1,0 -0.8,0 -1.5,-0.1 -2.2,-0.3 -0.7,-0.2 -1.3,-0.5 -2,-1 -0.6,-0.5 -1.1,-1.2 -1.5,-2.1 -0.3,-1 -0.5,-2.1 -0.5,-3.5 z m 2,-0.7 h 8 c 0,-0.3 0,-0.7 -0.1,-1 -0.1,-0.4 -0.2,-0.9 -0.5,-1.5 -0.2,-0.6 -0.6,-1.1 -1.2,-1.5 -0.6,-0.4 -1.3,-0.6 -2.2,-0.6 -1.4,0 -2.3,0.4 -3,1.1 -0.5,0.6 -0.9,1.8 -1,3.5 z"
           id="path63"
           inkscape:connector-curvature="0" /><path
           d="m 436,387.6 c 0,-0.6 0.1,-1.2 0.3,-1.7 0.2,-0.5 0.5,-0.9 0.8,-1.2 0.3,-0.3 0.8,-0.6 1.3,-0.8 0.5,-0.2 1,-0.4 1.4,-0.5 0.4,-0.1 0.9,-0.2 1.4,-0.2 0.5,-0.1 0.9,-0.1 1.2,-0.1 0.2,0 0.5,0 0.8,0 l 2.2,0.1 c 0,-1.2 -0.3,-2.1 -1,-2.7 -0.7,-0.5 -1.7,-0.8 -3,-0.8 -1.5,0 -2.8,0.2 -4,0.7 v -1.9 c 1.3,-0.5 2.7,-0.7 4.1,-0.7 1.9,0 3.4,0.5 4.4,1.5 1,1 1.5,2.4 1.5,4.3 v 4.1 c 0,0.9 -0.2,1.6 -0.6,2.2 -0.4,0.6 -0.9,1.1 -1.6,1.3 -0.6,0.3 -1.2,0.5 -1.8,0.6 -0.6,0.1 -1.1,0.2 -1.7,0.2 -0.4,0 -0.9,0 -1.3,-0.1 -0.4,-0.1 -0.9,-0.2 -1.5,-0.4 -0.6,-0.2 -1,-0.4 -1.5,-0.7 -0.4,-0.3 -0.8,-0.7 -1.1,-1.3 -0.1,-0.5 -0.3,-1.2 -0.3,-1.9 z m 2,0 c 0,1.7 1.2,2.6 3.7,2.6 0,0 0,0 0,0 2.4,0 3.6,-0.8 3.6,-2.5 v -2.6 c -0.6,-0.1 -1.4,-0.2 -2.4,-0.2 -3.2,0 -4.9,0.9 -4.9,2.7 z"
           id="path65"
           inkscape:connector-curvature="0" /><path
           d="m 451.2,391.8 v -12.6 c 1.8,-0.9 3.7,-1.3 5.8,-1.3 1.7,0 3.1,0.4 4,1.3 0.9,0.9 1.4,2.1 1.4,3.7 v 8.9 h -2 v -8.9 c 0,-0.4 0,-0.7 -0.1,-1 -0.1,-0.3 -0.2,-0.6 -0.5,-1 -0.2,-0.3 -0.6,-0.6 -1.1,-0.8 -0.5,-0.2 -1.2,-0.3 -2,-0.3 -1.1,0 -2.3,0.2 -3.6,0.6 v 11.4 h -1.9 z"
           id="path67"
           inkscape:connector-curvature="0" /><path
           d="m 465.8,381.8 c 0,-1.1 0.4,-2 1.2,-2.8 0.8,-0.8 2,-1.2 3.7,-1.2 1.2,0 2.3,0.3 3.5,0.8 v 2 c -1,-0.6 -2.1,-0.9 -3.3,-0.9 -2.1,0 -3.1,0.7 -3.1,2.1 0,0.5 0.2,0.9 0.8,1.2 0.5,0.3 1.1,0.5 1.8,0.7 0.7,0.2 1.4,0.4 2.2,0.7 0.7,0.3 1.3,0.7 1.8,1.4 0.5,0.6 0.8,1.5 0.8,2.5 0,1.2 -0.4,2.1 -1.3,2.8 -0.9,0.7 -2.1,1 -3.7,1 -1.5,0 -2.9,-0.3 -4.1,-1 V 389 c 1.3,0.8 2.7,1.2 4.1,1.2 2.1,0 3.1,-0.6 3.1,-1.9 0,-0.7 -0.2,-1.2 -0.8,-1.6 -0.5,-0.4 -1.1,-0.7 -1.8,-0.9 -0.7,-0.2 -1.4,-0.4 -2.2,-0.6 -0.7,-0.2 -1.3,-0.6 -1.8,-1.2 -0.6,-0.6 -0.9,-1.3 -0.9,-2.2 z"
           id="path69"
           inkscape:connector-curvature="0" /><path
           d="m 487.8,391.8 v -18.3 h 6.1 c 4.1,0 6.1,1.6 6.1,4.9 0,0.5 -0.1,1 -0.2,1.4 -0.1,0.4 -0.3,0.8 -0.5,1 -0.2,0.3 -0.4,0.5 -0.6,0.7 -0.2,0.2 -0.4,0.3 -0.5,0.4 L 498,382 c 0.1,0 0.2,0.1 0.3,0.1 0.1,0.1 0.4,0.2 0.7,0.4 0.4,0.2 0.7,0.5 0.9,0.8 0.3,0.3 0.5,0.7 0.7,1.3 0.2,0.6 0.3,1.2 0.3,1.9 0,3.5 -2.2,5.2 -6.6,5.2 h -6.5 z m 2,-10.4 h 4.5 c 1.1,0 2,-0.2 2.7,-0.6 0.7,-0.4 1,-1.2 1,-2.3 0,-1.2 -0.3,-2 -1,-2.5 -0.6,-0.5 -1.6,-0.7 -2.9,-0.7 h -4.3 v 6.1 z m 0,8.5 h 4.8 c 1.4,0 2.5,-0.2 3.3,-0.7 0.8,-0.5 1.2,-1.4 1.2,-2.7 0,-0.6 -0.1,-1 -0.3,-1.4 -0.2,-0.4 -0.4,-0.7 -0.7,-0.9 -0.3,-0.2 -0.6,-0.4 -1.1,-0.5 -0.4,-0.1 -0.8,-0.2 -1.2,-0.2 -0.4,0 -0.8,-0.1 -1.3,-0.1 h -4.7 v 6.5 z"
           id="path71"
           inkscape:connector-curvature="0" /><path
           d="m 504.5,386 v -7.9 h 2 v 8 c 0,1.4 0.3,2.4 0.9,3.1 0.6,0.6 1.6,1 2.8,1 1.3,0 2.2,-0.3 2.8,-1 0.6,-0.6 0.9,-1.7 0.9,-3.1 v -8 h 2 v 7.9 c 0,1.9 -0.5,3.4 -1.5,4.4 -1,1 -2.4,1.6 -4.2,1.6 -1.8,0 -3.2,-0.5 -4.2,-1.6 -1,-1 -1.5,-2.5 -1.5,-4.4 z"
           id="path73"
           inkscape:connector-curvature="0" /><path
           d="m 519.1,381.8 c 0,-1.1 0.4,-2 1.2,-2.8 0.8,-0.8 2,-1.2 3.7,-1.2 1.2,0 2.3,0.3 3.5,0.8 v 2 c -1,-0.6 -2.1,-0.9 -3.3,-0.9 -2.1,0 -3.1,0.7 -3.1,2.1 0,0.5 0.3,0.9 0.8,1.2 0.5,0.3 1.1,0.5 1.8,0.7 0.7,0.2 1.4,0.4 2.2,0.7 0.7,0.3 1.3,0.7 1.8,1.4 0.5,0.6 0.8,1.5 0.8,2.5 0,1.2 -0.4,2.1 -1.3,2.8 -0.9,0.7 -2.1,1 -3.7,1 -1.5,0 -2.9,-0.3 -4.1,-1 V 389 c 1.3,0.8 2.7,1.2 4.1,1.2 2.1,0 3.1,-0.6 3.1,-1.9 0,-0.7 -0.2,-1.2 -0.8,-1.6 -0.5,-0.4 -1.1,-0.7 -1.8,-0.9 -0.7,-0.2 -1.4,-0.4 -2.2,-0.6 -0.7,-0.2 -1.3,-0.6 -1.8,-1.2 -0.6,-0.6 -0.9,-1.3 -0.9,-2.2 z"
           id="path75"
           inkscape:connector-curvature="0" /><path
           d="m 531.6,375.7 v -2.2 h 2.2 v 2.2 h -2.2 z m 0.2,16.1 h 2 v -13.7 h -2 v 13.7 z"
           id="path77"
           inkscape:connector-curvature="0" /><path
           d="m 538.1,391.8 v -12.6 c 1.8,-0.9 3.7,-1.3 5.8,-1.3 1.7,0 3.1,0.4 4,1.3 0.9,0.9 1.4,2.1 1.4,3.7 v 8.9 h -2 v -8.9 c 0,-0.4 0,-0.7 -0.1,-1 -0.1,-0.3 -0.2,-0.6 -0.5,-1 -0.2,-0.3 -0.6,-0.6 -1.1,-0.8 -0.5,-0.2 -1.2,-0.3 -2,-0.3 -1.2,0 -2.4,0.2 -3.6,0.6 v 11.4 h -1.9 z"
           id="path79"
           inkscape:connector-curvature="0" /><path
           d="m 552.7,385.1 c 0,0 0,0 0,0 0,-0.1 0,-0.2 0,-0.2 0,-4.7 2,-7.1 6,-7.1 0.8,0 1.6,0.1 2.3,0.4 0.7,0.3 1.2,0.6 1.6,0.9 0.4,0.4 0.8,0.8 1.1,1.4 0.3,0.6 0.5,1.1 0.6,1.5 0.1,0.4 0.2,0.9 0.3,1.5 0.1,0.6 0.1,0.9 0.1,1 v 0.6 l -0.1,1 h -10 c 0.1,1.4 0.5,2.4 1.3,3 0.7,0.6 1.8,0.9 3.2,0.9 2,0 3.5,-0.3 4.7,-1 v 2 c -1.3,0.6 -2.9,1 -4.8,1 0,0 -0.1,0 -0.1,0 -0.8,0 -1.5,-0.1 -2.2,-0.3 -0.7,-0.2 -1.3,-0.5 -2,-1 -0.6,-0.5 -1.2,-1.2 -1.5,-2.1 -0.3,-1 -0.5,-2.1 -0.5,-3.5 z m 2,-0.7 h 8 c 0,-0.3 0,-0.7 -0.1,-1 -0.1,-0.4 -0.2,-0.9 -0.5,-1.5 -0.2,-0.6 -0.6,-1.1 -1.2,-1.5 -0.6,-0.4 -1.3,-0.6 -2.2,-0.6 -1.4,0 -2.3,0.4 -3,1.1 -0.5,0.6 -0.9,1.8 -1,3.5 z"
           id="path81"
           inkscape:connector-curvature="0" /><path
           d="m 567.4,381.8 c 0,-1.1 0.4,-2 1.2,-2.8 0.8,-0.8 2,-1.2 3.7,-1.2 1.2,0 2.3,0.3 3.5,0.8 v 2 c -1,-0.6 -2.1,-0.9 -3.3,-0.9 -2.1,0 -3.1,0.7 -3.1,2.1 0,0.5 0.2,0.9 0.8,1.2 0.6,0.3 1.1,0.5 1.8,0.7 0.7,0.2 1.4,0.4 2.2,0.7 0.7,0.3 1.3,0.7 1.8,1.4 0.5,0.6 0.8,1.5 0.8,2.5 0,1.2 -0.4,2.1 -1.3,2.8 -0.9,0.7 -2.1,1 -3.7,1 -1.5,0 -2.9,-0.3 -4.1,-1 V 389 c 1.3,0.8 2.7,1.2 4.1,1.2 2.1,0 3.1,-0.6 3.1,-1.9 0,-0.7 -0.2,-1.2 -0.8,-1.6 -0.5,-0.4 -1.1,-0.7 -1.8,-0.9 -0.7,-0.2 -1.4,-0.4 -2.2,-0.6 -0.7,-0.2 -1.3,-0.6 -1.8,-1.2 -0.6,-0.6 -0.9,-1.3 -0.9,-2.2 z"
           id="path83"
           inkscape:connector-curvature="0" /><path
           d="m 579.1,381.8 c 0,-1.1 0.4,-2 1.2,-2.8 0.8,-0.8 2,-1.2 3.7,-1.2 1.2,0 2.3,0.3 3.5,0.8 v 2 c -1,-0.6 -2.1,-0.9 -3.3,-0.9 -2.1,0 -3.1,0.7 -3.1,2.1 0,0.5 0.2,0.9 0.8,1.2 0.5,0.3 1.1,0.5 1.8,0.7 0.7,0.2 1.4,0.4 2.2,0.7 0.7,0.3 1.3,0.7 1.8,1.4 0.5,0.6 0.8,1.5 0.8,2.5 0,1.2 -0.4,2.1 -1.3,2.8 -0.9,0.7 -2.1,1 -3.7,1 -1.5,0 -2.9,-0.3 -4.1,-1 V 389 c 1.3,0.8 2.7,1.2 4.1,1.2 2.1,0 3.1,-0.6 3.1,-1.9 0,-0.7 -0.2,-1.2 -0.7,-1.6 -0.5,-0.4 -1.1,-0.7 -1.8,-0.9 -0.7,-0.2 -1.4,-0.4 -2.2,-0.6 -0.7,-0.2 -1.3,-0.6 -1.8,-1.2 -0.7,-0.6 -1,-1.3 -1,-2.2 z"
           id="path85"
           inkscape:connector-curvature="0" /></g></g></g></svg>